<svg width="179" height="44" viewBox="0 0 179 44" fill="none" xmlns="http://www.w3.org/2000/svg">
<path d="M70.6902 6.35535V6.80813C74.3314 6.78926 74.3125 13.0716 74.3125 13.0716V19.4861L63.6721 6.35535H57.201V6.80813C57.8802 6.86473 58.6537 6.58174 60.3328 8.69473L61.3704 9.97762V18.2221C61.3704 18.2221 61.3893 24.5044 57.4085 24.5044V24.9572H65.4266V24.5044C61.7855 24.5044 61.8232 18.2221 61.8232 18.2221V10.4493L73.3503 24.9572H74.7653V13.0716C74.7653 13.0716 74.7087 6.78926 78.6894 6.80813V6.35535H70.6902ZM83.5002 18.1655C83.5002 15.6374 84.5756 12.9585 86.1415 12.9585C87.5942 12.9585 88.6695 14.8451 88.6695 18.1655H83.5002ZM86.2735 12.5245C82.6324 12.5245 80.0855 15.1846 80.0855 18.9012C80.0855 21.9953 82.4626 25.2025 85.934 25.2025C89.4619 25.2025 91.0278 23.1084 91.4428 21.7311L91.0089 21.5048C90.3486 22.731 88.2356 23.2593 86.8018 22.9574C85.0284 22.5612 83.7078 21.2029 83.5002 18.6183H91.8956C91.8956 14.5055 90.1033 12.5245 86.2735 12.5245ZM105.555 21.7311V16.5241C105.555 13.3358 104.291 12.5245 102.234 12.5245C100.555 12.5245 98.4799 13.732 97.8761 15.3356V12.5245L93.254 13.581V14.0149C94.3293 14.5998 94.5746 14.9017 94.5746 15.8261V21.7877C94.5746 23.1272 94.5369 24.2215 93.537 24.5044V24.9572H98.9515V24.5044C98.0271 24.2403 97.8761 23.2404 97.8761 21.7877V16.5807C97.8761 15.5242 99.0836 14.4111 100.121 14.4111C101.442 14.4111 102.253 15.3356 102.253 16.6185V21.7311C102.253 23.0895 102.196 24.2215 101.197 24.5044V24.9572H106.63V24.5044C105.687 24.2781 105.555 23.1838 105.555 21.7311ZM112.497 8.6004C112.497 7.6005 111.686 6.80813 110.686 6.80813C109.667 6.80813 108.875 7.6005 108.875 8.6004C108.875 9.61917 109.667 10.4115 110.686 10.4115C111.686 10.4115 112.497 9.61917 112.497 8.6004ZM112.573 21.7311V12.5245L107.951 13.581V14.0149C109.045 14.5998 109.309 14.9771 109.309 15.8638V21.7311C109.309 23.0895 109.252 24.1837 108.252 24.5044V24.9572H113.667V24.5044C112.705 24.2403 112.573 23.2216 112.573 21.7311ZM129.797 19.2031C128.684 24.5044 121.685 24.5044 121.685 24.5044H120.742V15.7884H121.685C121.685 15.7884 125.704 15.7884 125.968 18.5428H126.42V12.6H125.968C125.704 15.3356 121.685 15.3356 121.685 15.3356H120.742V6.80813H121.685C121.685 6.80813 128.854 6.80813 129.458 11.3737H129.911V6.35535H115.384V6.80813C116.535 6.80813 116.912 8.37401 116.912 10.0154V21.335C116.912 23.1272 116.497 24.5044 115.384 24.5044V24.9572H130.25V19.2031H129.797ZM152.512 24.5044C151.569 24.2781 151.437 23.1838 151.437 21.7311V16.5241C151.437 13.3358 150.173 12.5245 148.097 12.5245C146.437 12.5245 144.645 13.7131 144.098 15.3167C143.777 13.3546 142.645 12.5245 140.796 12.5245C139.117 12.5245 137.514 13.7131 136.797 15.2412V12.5245L132.175 13.581V14.0149C133.269 14.5998 133.495 15.0714 133.495 15.9959V21.7877C133.495 23.1272 133.476 24.2215 132.476 24.5044V24.9572H137.891V24.5044C136.967 24.2403 136.797 23.2404 136.797 21.7877V16.5807C136.797 15.6374 137.929 14.4111 138.91 14.4111C140.098 14.4111 140.815 15.128 140.815 16.6185V21.7311C140.815 23.0895 140.759 24.2215 139.759 24.5044V24.9572H145.192V24.5044C144.249 24.2781 144.117 23.1838 144.117 21.7311V16.6562C144.117 15.5997 145.23 14.4111 146.211 14.4111C147.399 14.4111 148.135 15.128 148.135 16.6185V21.7311C148.135 23.0895 148.079 24.2215 147.079 24.5044V24.9572H152.512V24.5044ZM160.907 18.1089L158.247 16.4487C155.946 14.996 156.682 12.9585 158.398 12.9585C161.134 12.9585 161.964 15.3356 162.322 16.26H162.756V13.3169C162.756 13.3169 161.436 12.5245 158.398 12.5245C155.757 12.5245 154.757 13.8452 154.757 13.8452C153.304 15.7318 154.003 17.8825 156.549 19.4295L159.228 21.052C161.228 22.3726 160.907 24.7497 159.04 24.7497C155.946 24.7497 155.097 21.6745 154.701 20.6558H154.267V23.9762C154.267 23.9762 155.851 25.2025 159.04 25.2025C161.738 25.2025 162.737 23.7687 162.737 23.7687C164.058 21.8632 163.266 19.5616 160.907 18.1089ZM177.661 22.5235V12.5245L173.114 13.015V13.4678C174.472 13.6188 174.359 13.9772 174.359 15.5808V21.5425C173.812 22.599 172.793 23.2593 172.057 23.2593C170.529 23.2593 169.85 22.5613 169.85 21.0708V12.5245L165.096 13.015V13.4678C166.624 13.6754 166.567 13.9206 166.567 15.5054V21.1463C166.567 24.3158 167.812 25.2025 169.888 25.2025C171.529 25.2025 173.718 23.8441 174.359 22.3349V24.6742C174.359 24.6742 174.378 25.278 175.095 25.1648L179 24.4856V24.0328C177.906 23.9007 177.661 23.7875 177.661 22.5235Z" fill="white"/>
<path d="M60.0422 33.3907L58.8547 35.4655L57.6454 33.3907H57.201V37.762H57.5835V34.1452L58.8547 36.2247L60.1041 34.1452V37.762H60.4866V33.3907H60.0422ZM65.3785 33.3907H64.8977L63.4662 37.762H63.8887L64.3003 36.4935H65.9722L66.3875 37.762H66.81L65.3785 33.3907ZM64.4497 36.0408L65.1381 33.9047L65.8265 36.0408H64.4497ZM72.5871 33.3907H72.048L70.1721 35.6683V33.3907H69.7896V37.762H70.1721V36.3285L70.8678 35.4844L72.19 37.762H72.6708L71.1483 35.1496L72.5871 33.3907ZM75.9892 33.3907H75.6067V37.762H75.9892V33.3907ZM81.8937 33.3907V37.0688L79.8102 33.3907H79.3658V37.762H79.7483V34.0698L81.8318 37.762H82.2762V33.3907H81.8937ZM87.1026 33.3389C86.0863 33.3389 85.4379 34.3338 85.4379 35.5787C85.4379 36.8189 86.0608 37.8139 87.0916 37.8139C87.7036 37.8139 88.1006 37.413 88.3155 36.9886V37.762H88.6652V35.4373H87.0807V35.8852H88.3155C88.3155 36.8 87.7327 37.3329 87.1208 37.3329C86.3012 37.3329 85.8204 36.5595 85.8204 35.5787C85.8204 34.5932 86.3121 33.8198 87.1317 33.8198C87.6453 33.8198 88.0132 34.1122 88.2172 34.579H88.6361C88.3847 33.8481 87.8238 33.3389 87.1026 33.3389ZM97.9209 33.3907H95.1853V33.867H96.3619V37.762H96.7443V33.867H97.9209V33.3907ZM103.301 33.3907V35.3335H101.338V33.3907H100.955V37.762H101.338V35.8145H103.301V37.762H103.683V33.3907H103.301ZM109.544 33.867V33.3907H107.06V37.762H109.544V37.2857H107.442V35.8145H109.318V35.3335H107.442V33.867H109.544ZM118.377 34.0933L119.288 37.762H119.721L120.774 33.3907H120.37L119.503 37.0641L118.596 33.3907H118.159L117.248 37.0641L116.381 33.3907H115.981L117.03 37.762H117.463L118.377 34.0933ZM126.267 33.867V33.3907H123.783V37.762H126.267V37.2857H124.165V35.8145H126.041V35.3335H124.165V33.867H126.267ZM131.56 35.5316C131.8 35.3901 132.011 35.1072 132.011 34.546C132.011 34.0179 131.742 33.3907 130.948 33.3907H129.432V37.762H131.035C131.804 37.762 132.186 37.2669 132.186 36.6114C132.186 35.9607 131.844 35.6494 131.56 35.5316ZM129.815 33.8623H130.988C131.45 33.8623 131.629 34.2254 131.629 34.5885C131.629 35.1213 131.297 35.3477 130.948 35.3477H129.815V33.8623ZM131.075 37.2952H129.815V35.7956H131.035C131.571 35.7956 131.804 36.1634 131.804 36.5737C131.804 37.0311 131.538 37.2952 131.075 37.2952ZM140.509 33.3907H140.029L138.597 37.762H139.02L139.431 36.4935H141.107L141.518 37.762H141.941L140.509 33.3907ZM139.581 36.0408L140.269 33.9047L140.957 36.0408H139.581ZM146.782 34.0933L147.692 37.762H148.126L149.179 33.3907H148.774L147.907 37.0641L147 33.3907H146.563L145.653 37.0641L144.786 33.3907H144.385L145.434 37.762H145.868L146.782 34.0933ZM154.672 33.867V33.3907H152.187V37.762H154.672V37.2857H152.57V35.8145H154.446V35.3335H152.57V33.867H154.672ZM158.019 34.5413C158.019 34.2489 158.154 33.801 158.919 33.801C159.534 33.801 159.822 34.1499 159.862 34.5885H160.256C160.223 33.933 159.815 33.3389 158.919 33.3389C158.07 33.3389 157.647 33.834 157.647 34.546C157.647 36.0456 159.957 35.5033 159.957 36.5737C159.957 37.0877 159.6 37.347 159.032 37.347C158.445 37.347 157.968 37.0877 157.943 36.4558H157.545C157.596 37.2386 158.004 37.8139 159.006 37.8139C159.837 37.8139 160.339 37.3659 160.339 36.5548C160.339 35.027 158.019 35.5551 158.019 34.5413ZM164.98 33.3389C163.956 33.3389 163.268 34.3338 163.268 35.5787C163.268 36.8189 163.956 37.8139 164.98 37.8139C166.007 37.8139 166.696 36.8189 166.696 35.5787C166.696 34.3338 166.007 33.3389 164.98 33.3389ZM164.98 37.3329C164.16 37.3329 163.65 36.5595 163.65 35.5787C163.65 34.5932 164.16 33.8198 164.98 33.8198C165.803 33.8198 166.313 34.5932 166.313 35.5787C166.313 36.5595 165.803 37.3329 164.98 37.3329ZM172.698 33.3907L171.507 35.4655L170.302 33.3907H169.857V37.762H170.24V34.1452L171.507 36.2247L172.757 34.1452V37.762H173.139V33.3907H172.698ZM179 33.867V33.3907H176.516V37.762H179V37.2857H176.898V35.8145H178.774V35.3335H176.898V33.867H179Z" fill="white"/>
<path d="M8.68643 14.847C8.56624 14.7266 8.42351 14.6312 8.2664 14.566C8.10929 14.5009 7.94087 14.4674 7.77079 14.4674C7.60071 14.4674 7.4323 14.5009 7.27518 14.566C7.11807 14.6312 6.97534 14.7266 6.85515 14.847L0.379619 21.3225C0.259275 21.4427 0.163805 21.5854 0.0986662 21.7425C0.0335279 21.8997 0 22.0681 0 22.2381C0 22.4082 0.0335279 22.5766 0.0986662 22.7338C0.163805 22.8909 0.259275 23.0336 0.379619 23.1538L6.85515 29.6293C7.10796 29.8826 7.43899 30.009 7.77053 30.009C8.10208 30.009 8.43311 29.8826 8.68643 29.6298C8.80678 29.5096 8.90225 29.3669 8.96738 29.2098C9.03252 29.0527 9.06605 28.8843 9.06605 28.7142C9.06605 28.5441 9.03252 28.3757 8.96738 28.2186C8.90225 28.0615 8.80678 27.9187 8.68643 27.7986L3.12628 22.2384L8.68591 16.6788C8.80625 16.5585 8.90171 16.4158 8.96686 16.2586C9.03202 16.1015 9.06557 15.9331 9.06562 15.763C9.06567 15.5929 9.03221 15.4244 8.96714 15.2673C8.90208 15.1101 8.8067 14.9673 8.68643 14.847ZM46.2445 21.3225L39.769 14.847C39.6488 14.7266 39.5061 14.6312 39.3489 14.566C39.1918 14.5009 39.0234 14.4674 38.8533 14.4674C38.6833 14.4674 38.5148 14.5009 38.3577 14.566C38.2006 14.6312 38.0579 14.7266 37.9377 14.847C37.8174 14.9672 37.7219 15.1099 37.6568 15.267C37.5916 15.4241 37.5581 15.5925 37.5581 15.7626C37.5581 15.9327 37.5916 16.1011 37.6568 16.2582C37.7219 16.4153 37.8174 16.5581 37.9377 16.6783L43.4973 22.2384L37.9372 27.798C37.7555 27.979 37.6317 28.2098 37.5814 28.4612C37.5311 28.7126 37.5567 28.9733 37.6548 29.2102C37.7529 29.4471 37.9192 29.6495 38.1325 29.7917C38.3459 29.9339 38.5967 30.0096 38.8531 30.009C39.1846 30.009 39.5157 29.8826 39.769 29.6298L46.2445 23.1543C46.4873 22.9113 46.6237 22.5819 46.6237 22.2384C46.6237 21.8949 46.4873 21.5655 46.2445 21.3225Z" fill="url(#paint0_linear)"/>
<path d="M25.7095 11.3219C25.8367 10.6919 26.0003 9.97922 26.1242 9.25929C26.1278 9.23993 26.1309 9.22004 26.1364 9.20103C26.1637 9.10645 26.1815 9.09252 26.2821 9.12868C26.4066 9.17346 26.5329 9.20923 26.6639 9.22726C26.9616 9.26757 27.2447 9.22932 27.4931 9.07069C27.6765 8.95364 27.8135 8.78895 27.9373 8.61766C28.1259 8.35728 28.3092 8.09361 28.4929 7.83002C28.7618 7.44434 29.0765 7.09686 29.472 6.82333C29.7785 6.61163 30.1205 6.46508 30.5007 6.40841C30.7267 6.37456 30.9395 6.43882 31.146 6.5219C31.5487 6.6839 31.9142 6.90885 32.2697 7.14824C33.0931 7.70262 33.874 8.31107 34.6841 8.88161C35.38 9.37207 36.0937 9.83554 36.8569 10.2262C37.3863 10.4971 37.9335 10.7327 38.5119 10.8795C39.1841 11.0505 39.8672 11.1486 40.5614 11.044C40.8676 10.998 41.1752 10.9712 41.4881 10.9938C41.5987 11.0012 41.7066 11.0322 41.8037 11.0844C41.9 11.1356 41.9264 11.1959 41.9092 11.2979C41.894 11.3886 41.8468 11.4651 41.792 11.5378C41.6417 11.7373 41.4489 11.8973 41.2341 12.0286C40.8052 12.2913 40.3384 12.4722 39.8257 12.5427C39.5248 12.5874 39.2174 12.5882 38.9143 12.545C38.7634 12.5224 38.7443 12.5324 38.7447 12.6725C38.745 12.8159 38.6639 12.8917 38.5339 12.9325C38.3411 12.9929 38.1408 12.9868 37.9407 12.9714C37.3908 12.9299 36.8786 12.7618 36.3872 12.5258L36.3158 12.4926C36.2557 12.4648 36.213 12.4798 36.1919 12.5383C36.1768 12.5802 36.1658 12.6238 36.1525 12.6665C36.015 13.1112 35.7338 13.2787 35.3105 13.2795C35.0117 13.28 34.7415 13.181 34.4713 13.0768C34.3634 13.0351 34.2598 12.9835 34.1554 12.9341C33.9765 12.8491 33.9771 12.8482 33.8645 12.9932C33.7875 13.0926 33.7101 13.1915 33.6115 13.2739C33.37 13.4756 33.0884 13.5486 32.7668 13.5095C32.4476 13.4703 32.154 13.3591 31.8706 13.2167C31.758 13.1602 31.6455 13.1032 31.5314 13.0501C31.3841 12.9812 31.3837 12.983 31.2853 13.0994C31.2526 13.1376 31.2194 13.1757 31.1837 13.2115C30.9309 13.4638 30.6146 13.5085 30.2711 13.4272C29.8461 13.3267 29.4873 13.103 29.1511 12.842C29.1183 12.8164 29.0868 12.7892 29.0534 12.764C28.8578 12.614 28.8555 12.6127 28.6409 12.738C28.5254 12.8051 28.4149 12.8798 28.2997 12.9475C27.9694 13.1408 27.6153 13.1414 27.2512 13.0321C26.6822 12.8614 26.1632 12.585 25.6417 12.3141C25.5542 12.2687 25.5443 12.2069 25.5603 12.1256C25.607 11.8875 25.6496 11.6478 25.7095 11.3219ZM23.5329 11.2763C23.4976 11.4685 23.4691 11.6099 23.4464 11.7523C23.4337 11.8323 23.3908 11.8724 23.3047 11.884C22.7218 11.9602 22.1381 12.0251 21.5455 11.9855C21.1265 11.9573 20.783 11.7951 20.5394 11.4576C20.4733 11.3663 20.4054 11.2761 20.3353 11.1874C20.2138 11.0343 20.1883 11.0226 20.003 11.0825C19.7599 11.1612 19.5136 11.2253 19.2596 11.267C19.0271 11.309 18.7879 11.3126 18.5525 11.2775C18.1696 11.2146 17.8926 11.0185 17.7686 10.6532C17.7053 10.4661 17.7032 10.4666 17.4925 10.4847C17.3094 10.5003 17.1265 10.5174 16.9433 10.5308C16.7386 10.5429 16.5325 10.5299 16.3303 10.4921C15.8656 10.4118 15.5763 10.1506 15.427 9.73546C15.4063 9.67861 15.3909 9.62039 15.3739 9.56235C15.3337 9.42373 15.3342 9.42382 15.1782 9.43424C15.0472 9.4432 14.9165 9.45827 14.785 9.45922C14.5062 9.46101 14.2284 9.46019 13.9589 9.35994C13.5138 9.1948 13.3192 8.90728 13.3629 8.46019C13.3839 8.24672 13.3826 8.24322 13.1635 8.26624C12.7689 8.30724 12.3744 8.28311 11.9833 8.22379C11.7081 8.18203 11.4361 8.10877 11.1889 7.97351C11.1333 7.94413 11.0806 7.90997 11.0314 7.87149C10.9306 7.78873 10.8879 7.69339 10.9396 7.56515C10.9915 7.43601 10.9724 7.41622 10.8256 7.38225C10.0824 7.21072 9.48767 6.81705 8.99795 6.26585C8.81051 6.0594 8.65877 5.82645 8.54855 5.57594C8.50053 5.4638 8.46194 5.34874 8.46053 5.22748C8.4584 5.0591 8.52648 4.99762 8.7017 4.9819C8.87276 4.96728 9.02287 5.03443 9.17571 5.08672C9.37037 5.15322 9.55314 5.24685 9.7318 5.34671C10.2077 5.61335 10.7172 5.78288 11.2567 5.88578C12.0175 6.03123 12.7759 6.02638 13.5362 5.94883C14.3267 5.86845 15.1011 5.71438 15.8641 5.51493C16.6966 5.29754 17.5243 5.06344 18.3571 4.84658C18.8566 4.71642 19.3576 4.5884 19.8768 4.53587C20.0917 4.51394 20.3068 4.5065 20.5223 4.52702C20.7401 4.54799 20.9219 4.6526 21.0906 4.77949C21.5409 5.11821 21.8379 5.55721 22.0399 6.05924C22.212 6.48783 22.3093 6.93339 22.4194 7.37664C22.4701 7.58142 22.5308 7.78337 22.6136 7.98009C22.7646 8.3378 23.058 8.53366 23.435 8.63181C23.5467 8.66072 23.6617 8.67676 23.779 8.6783C23.9208 8.68018 23.9416 8.70401 23.9361 8.84122C23.9337 8.90546 23.9229 8.96956 23.9117 9.03312L23.6411 10.5456C23.5934 10.8049 23.5891 11.0703 23.5329 11.2763ZM20.4146 13.3882C20.627 13.4119 20.8494 13.4784 21.0723 13.5417C21.1952 13.5769 21.3068 13.6383 21.4018 13.7205C21.7265 14.0008 21.9676 14.3331 22.0973 14.7316C22.1021 14.746 22.1063 14.7607 22.1101 14.7749C22.1903 15.0693 22.1345 15.1661 21.8326 15.2474C21.3453 15.3789 20.8556 15.3512 20.367 15.2265C20.2444 15.1928 20.1297 15.1361 20.0298 15.0598C19.8531 14.9305 19.672 14.8065 19.4978 14.674C19.2145 14.4585 18.8907 14.3264 18.5469 14.233C18.185 14.1377 17.8189 14.059 17.4496 13.9973C17.33 13.9766 17.2084 13.9696 17.0876 13.9763C16.6515 13.9985 16.4029 14.3596 16.5482 14.7562C16.5975 14.8909 16.6792 15.0079 16.7792 15.1142C17.1034 15.4614 17.4939 15.7305 17.9049 15.9741C18.7168 16.4542 19.5879 16.8056 20.4956 17.0758C20.94 17.2077 21.389 17.3196 21.8435 17.4148C22.6999 17.5941 23.5521 17.7903 24.3675 18.1142C25.2312 18.4573 26.0678 18.8461 26.8077 19.4037C27.2375 19.7275 27.6003 20.1042 27.831 20.5817C28.0292 20.9918 28.1023 21.4157 27.9859 21.8504C27.89 22.2078 27.6864 22.5124 27.4235 22.7796C27.0114 23.1976 26.504 23.4864 25.959 23.7222C25.4537 23.9406 24.9245 24.096 24.3868 24.2299C24.2853 24.2554 24.2103 24.2421 24.1294 24.1714C23.9097 23.981 23.6737 23.8081 23.4241 23.6545C23.3722 23.6222 23.3053 23.5941 23.3108 23.5211C23.3173 23.4376 23.3196 23.3501 23.3708 23.2781C23.4026 23.2341 23.4625 23.2358 23.5137 23.2261C23.868 23.1577 24.224 23.0956 24.5725 23.0048C24.9128 22.9161 25.2396 22.7951 25.5338 22.6133C25.8797 22.3995 26.1509 22.1222 26.2108 21.713C26.2607 21.3722 26.1455 21.0611 25.9488 20.775C25.689 20.3964 25.3323 20.1102 24.9381 19.8665C24.5259 19.607 24.0776 19.4042 23.607 19.2644C23.4551 19.2202 23.3003 19.1866 23.1472 19.1496C22.5633 19.0083 21.9847 18.8494 21.4045 18.6966C20.6339 18.494 19.8756 18.2569 19.1513 17.926C18.2808 17.5286 17.4714 17.0429 16.7518 16.4262C16.303 16.0416 15.9086 15.6141 15.6264 15.1052C15.4799 14.8409 15.3789 14.5631 15.3784 14.2596C15.3783 13.9515 15.5158 13.7162 15.763 13.5322C15.9289 13.4087 16.1171 13.3251 16.3201 13.2684C16.7571 13.1472 17.2075 13.1202 17.6615 13.1269C18.0825 13.1331 18.5017 13.1762 18.92 13.2298C19.1182 13.2555 19.319 13.2617 19.5186 13.2747C19.8121 13.2947 20.106 13.3213 20.4146 13.3882Z" fill="url(#paint1_linear)"/>
<path d="M23.0537 16.1369C23.0851 15.9659 23.1224 15.7954 23.1471 15.6231C23.2705 14.7718 23.4467 13.9293 23.5757 13.0796C23.6778 12.4059 23.821 11.7397 23.9163 11.0657C24.0143 10.3713 24.1664 9.6863 24.2639 8.99222C24.3518 8.36663 24.4889 7.74964 24.5761 7.12486C24.641 6.66166 24.7235 6.20215 24.8046 5.74238C24.8128 5.70633 24.811 5.66867 24.7991 5.63311C24.7873 5.59755 24.7659 5.56534 24.7371 5.53966C24.398 5.20088 24.2585 4.79644 24.3015 4.34224C24.3308 4.0372 24.4656 3.75189 24.6853 3.53046C25.0655 3.13546 25.5517 2.97261 26.1063 3.06898C27.0484 3.23286 27.5246 4.08035 27.4134 4.75003C27.3286 5.26217 27.0486 5.62487 26.5767 5.86061C26.5347 5.8792 26.4985 5.90743 26.4712 5.94277C26.444 5.97812 26.4265 6.01948 26.4205 6.06318C26.2718 6.79392 26.1322 7.52634 25.9803 8.25603C25.8319 8.96636 25.7145 9.68329 25.5553 10.3907C25.4077 11.0458 25.3116 11.7108 25.1623 12.3647C24.9969 13.0872 24.892 13.8214 24.7282 14.5433C24.571 15.2371 24.4631 15.9399 24.3136 16.6347C24.2511 16.9262 24.1853 17.217 24.1272 17.5093C24.1022 17.6345 24.0665 17.6564 23.9442 17.6129C23.6364 17.5038 23.3199 17.4232 23.0072 17.3295C22.8687 17.2882 22.8547 17.273 22.879 17.1356C22.9373 16.8024 23.0002 16.4705 23.0614 16.1379L23.0537 16.1369V16.1369ZM21.3635 19.0349C21.313 19.0921 21.2557 19.0816 21.2074 19.089C20.7619 19.1593 20.3397 19.286 19.9811 19.5495C19.5837 19.8422 19.3484 20.2197 19.4036 20.7171C19.4445 21.0852 19.6235 21.4039 19.876 21.6872C20.1848 22.0329 20.5579 22.3049 20.9535 22.5544C21.7146 23.0341 22.4964 23.4817 23.2657 23.9493C23.8108 24.2771 24.2775 24.7103 24.6345 25.2196C24.9297 25.6415 25.1275 26.0991 25.1278 26.6106C25.128 27.1197 24.956 27.5748 24.6546 27.9867C24.2581 28.529 23.7297 28.9298 23.1318 29.2573C22.9825 29.3388 22.8269 29.4088 22.6736 29.4826C22.5977 29.5193 22.5401 29.5134 22.479 29.4482C22.4158 29.3807 22.3418 29.3215 22.2697 29.2626C22.2027 29.208 22.175 29.1466 22.1931 29.0638C22.2217 28.9327 22.2474 28.8006 22.2679 28.668C22.283 28.5698 22.3399 28.5128 22.431 28.4681C22.8043 28.2897 23.1448 28.0568 23.4403 27.7779C23.6969 27.5318 23.8905 27.2519 23.9471 26.8956C24.0052 26.5284 23.8856 26.2044 23.6791 25.9012C23.3774 25.4581 22.9606 25.1227 22.5126 24.8198C22.0147 24.4825 21.4726 24.2135 20.9534 23.9086C20.1695 23.4481 19.4329 22.9292 18.8047 22.2827C18.4202 21.8872 18.0969 21.4537 17.8903 20.9498C17.748 20.6016 17.688 20.243 17.7414 19.8773C17.789 19.551 17.9395 19.2617 18.1572 19.0095C18.4042 18.724 18.7107 18.5044 19.0572 18.3335C19.1321 18.2966 19.1971 18.3081 19.2671 18.3382C19.5907 18.4772 19.9217 18.6 20.2572 18.7086C20.5023 18.7881 20.7486 18.8637 20.9994 18.9261C21.1193 18.956 21.2358 18.9965 21.3635 19.0349V19.0349ZM25.1184 18.0182C25.2882 18.0429 25.4595 18.059 25.6291 18.0818C26.1933 18.156 26.761 18.1967 27.329 18.2035C28.072 18.2177 28.8123 18.1502 29.5352 18.0023C29.9044 17.925 30.2643 17.8208 30.6003 17.6555C30.7171 17.5978 30.822 17.5264 30.9118 17.4354C31.0439 17.3024 31.0983 17.1435 31.0901 16.96C31.0815 16.7676 30.9863 16.6277 30.8117 16.5323C30.6877 16.4636 30.5535 16.4134 30.4139 16.3838C29.9446 16.2836 29.4686 16.2174 28.9902 16.1858C28.6921 16.1687 28.4039 16.2191 28.1215 16.2993C27.946 16.3489 27.7698 16.3966 27.5941 16.4448C27.4199 16.4924 27.2443 16.4968 27.0636 16.4673C26.6139 16.394 26.1955 16.2501 25.8278 15.9833C25.5768 15.8013 25.5532 15.6959 25.7287 15.456C25.9952 15.0912 26.3648 14.8507 26.8028 14.7003C27.0326 14.6211 27.2721 14.6642 27.5059 14.6951C28.067 14.7694 28.6075 14.9288 29.1455 15.0994C29.3307 15.1581 29.5222 15.1989 29.71 15.2488C30.3494 15.4184 30.969 15.6338 31.5286 15.9875C31.7383 16.12 31.9208 16.2797 32.0658 16.4762C32.3323 16.837 32.3357 17.2025 32.111 17.5711C31.9547 17.8277 31.7388 18.0323 31.491 18.2092C30.9436 18.6 30.3259 18.8606 29.6716 19.0516C28.9755 19.2529 28.2564 19.3804 27.5274 19.4318C27.4403 19.4381 27.3645 19.4316 27.2933 19.3702C26.7181 18.8731 26.0568 18.503 25.3638 18.1792C25.2788 18.1394 25.1951 18.0979 25.1107 18.0573L25.1184 18.0182V18.0182Z" fill="url(#paint2_linear)"/>
<path d="M21.3551 33.2842C21.3744 33.1816 21.4018 33.081 21.4278 32.9797C21.4388 32.9366 21.4589 32.8962 21.4869 32.861C21.5149 32.8258 21.5503 32.7964 21.5909 32.7747C21.7404 32.6844 21.8808 32.5837 22.0062 32.4629C22.272 32.207 22.3425 31.9044 22.2457 31.558C22.1906 31.3694 22.1065 31.189 21.996 31.0226C21.6974 30.56 21.3226 30.157 20.9059 29.7863C20.5651 29.4831 20.1921 29.213 19.8775 28.8829C19.4246 28.4083 19.0436 27.8915 18.799 27.2932C18.6009 26.8077 18.5089 26.3119 18.6055 25.7969C18.6828 25.3848 18.8764 25.0299 19.167 24.7222C19.4662 24.4054 19.8299 24.1703 20.2313 23.9825C20.3091 23.9461 20.372 23.9423 20.4504 23.9911C20.6814 24.1341 20.9177 24.2697 21.1525 24.4078C21.2826 24.4843 21.2808 24.497 21.2706 24.6385C21.2587 24.8052 21.1714 24.8878 21.0081 24.9434C20.6967 25.0481 20.4118 25.2109 20.17 25.4223C19.7496 25.7917 19.6229 26.2468 19.757 26.7773C19.8205 27.0282 19.9332 27.2611 20.0783 27.4791C20.34 27.8715 20.6421 28.2342 20.983 28.5691C21.3307 28.9099 21.7015 29.2266 22.0746 29.5418C22.5196 29.9177 22.8942 30.3454 23.1347 30.8666C23.2907 31.2052 23.3544 31.5594 23.3014 31.9206C23.2659 32.1621 23.1666 32.3877 23.0342 32.5974C22.9002 32.8035 22.7366 32.9906 22.5479 33.1535C22.2683 33.3976 21.956 33.6061 21.6186 33.7738C21.495 33.8367 21.4897 33.8278 21.3985 33.7221C21.3207 33.6324 21.2943 33.5396 21.3268 33.4298C21.3413 33.3831 21.3461 33.3332 21.3551 33.2842V33.2842Z" fill="url(#paint3_linear)"/>
<path d="M20.4561 38.021C20.424 37.9728 20.4367 37.9332 20.448 37.8962C20.5535 37.5475 20.5948 37.1861 20.6651 36.8304C20.7183 36.5624 20.8131 36.3048 20.8479 36.0324C20.9296 35.3862 20.7702 34.8059 20.3047 34.3052C20.01 33.9881 19.7068 33.6769 19.4207 33.353C19.0536 32.9374 18.7396 32.4888 18.5836 31.9622C18.4164 31.3972 18.4854 30.8659 18.8317 30.3818C19.1074 29.9964 19.4921 29.7307 19.9188 29.5122C19.9771 29.4825 20.0278 29.4834 20.0761 29.5295L20.0881 29.5396C20.4398 29.8397 20.3786 29.7163 20.333 30.1277C20.3023 30.4022 20.2025 30.6124 19.9537 30.7649C19.8102 30.8525 19.7019 30.9852 19.6092 31.1241C19.4237 31.4027 19.3935 31.6955 19.5411 32.0051C19.6622 32.2591 19.8283 32.4865 20.0176 32.6976C20.3749 33.0965 20.7533 33.4797 21.0968 33.8887C21.5064 34.3763 21.7247 34.932 21.6809 35.5597C21.6151 36.5085 21.1829 37.2961 20.5284 37.985C20.5178 37.9958 20.5057 38.0053 20.4926 38.0133C20.4844 38.0174 20.473 38.0176 20.4561 38.021V38.021ZM23.5433 20.5134C23.3447 21.4002 23.1815 22.2934 23.0158 23.1867C23.0131 23.2016 23.0109 23.2161 23.0067 23.2307C22.9759 23.3502 22.9462 23.3666 22.8337 23.3017C22.5662 23.1478 22.3035 22.9869 22.0368 22.8313C21.9642 22.7886 21.9314 22.7356 21.9519 22.6565C21.9555 22.6423 21.9568 22.6272 21.9595 22.6123C22.1206 21.6582 22.2688 20.7016 22.4515 19.751C22.4732 19.649 22.4877 19.5457 22.495 19.4416C22.4983 19.378 22.5297 19.3363 22.607 19.3561C22.9229 19.4374 23.2432 19.5 23.5539 19.599C23.6966 19.6444 23.6998 19.6542 23.6748 19.7953C23.6327 20.0351 23.5873 20.2739 23.5433 20.5134V20.5134ZM22.5373 25.6178C22.3398 26.4233 22.2209 27.2503 22.0496 28.0662C22 28.3042 21.9446 28.5411 21.8954 28.7792C21.871 28.8985 21.8494 28.9029 21.7488 28.8192C21.5247 28.6333 21.3229 28.4259 21.1149 28.2248C21.034 28.1466 21.0245 28.0639 21.0428 27.9644C21.1228 27.5347 21.21 27.1059 21.2736 26.6741C21.3635 26.08 21.4631 25.4876 21.5722 24.8968C21.6151 24.6608 21.6172 24.6598 21.8394 24.7942C22.0407 24.9159 22.2353 25.0471 22.4307 25.177C22.5578 25.2618 22.6043 25.3579 22.5599 25.4949C22.5479 25.5332 22.5454 25.5737 22.5373 25.6178V25.6178Z" fill="url(#paint4_linear)"/>
<path d="M20.1446 39.3501C20.0278 39.2742 19.9561 39.1749 19.8757 39.0861C19.3603 38.5163 18.9811 37.8769 18.7664 37.1562C18.6277 36.6826 18.576 36.1917 18.6135 35.705C18.6346 35.4374 18.6902 35.174 18.7789 34.9205C18.8961 34.5735 19.1123 34.2861 19.3825 34.0333C19.4176 34.0007 19.4455 33.9485 19.5106 33.9652C19.5577 33.9771 19.6424 34.089 19.6425 34.142C19.6426 34.1816 19.6353 34.2212 19.6282 34.26C19.5343 34.7732 19.4514 35.2889 19.3433 35.7991C19.2088 36.4338 19.286 37.0562 19.4613 37.6767C19.6104 38.2058 19.8343 38.7095 20.0948 39.1995C20.1176 39.2423 20.1552 39.2818 20.1446 39.3501ZM21.2809 31.92C21.2334 32.1789 21.1886 32.4387 21.1372 32.6968C21.107 32.8476 21.0682 32.9969 21.0295 33.1457C21.0063 33.234 20.972 33.2435 20.9034 33.1704C20.7094 32.9635 20.5218 32.7512 20.3306 32.5425C20.2734 32.4799 20.2894 32.4121 20.3015 32.3436C20.3616 32.0112 20.4294 31.6797 20.48 31.3456C20.5341 30.987 20.5842 30.6281 20.6517 30.2719C20.6561 30.2476 20.6597 30.2227 20.6652 30.1985C20.6918 30.0778 20.7139 30.0702 20.8099 30.1581C21.0198 30.3512 21.2169 30.555 21.3957 30.7749C21.4242 30.8078 21.4444 30.8463 21.4548 30.8875C21.4652 30.9286 21.4656 30.9713 21.4557 31.0121C21.3967 31.3145 21.3429 31.6178 21.2872 31.9207L21.2809 31.92V31.92Z" fill="url(#paint5_linear)"/>
<path d="M20.0414 38.1766C19.9797 38.1578 19.9731 38.1263 19.9633 38.0989C19.7763 37.5745 19.6234 37.0443 19.623 36.4881C19.6228 36.4434 19.6222 36.3982 19.6279 36.354C19.706 35.7625 19.8134 35.1759 19.9198 34.5891L19.9225 34.5742C19.9354 34.5389 19.924 34.4856 19.9776 34.4787C20.0186 34.4732 20.0366 34.5151 20.061 34.5406C20.3684 34.8563 20.4973 35.2346 20.519 35.6509C20.5229 35.7265 20.5095 35.7995 20.4955 35.8727L20.1743 37.5881C20.1383 37.7835 20.0684 37.9707 20.0414 38.1766V38.1766ZM19.2204 38.8554C19.326 38.9334 19.3753 39.036 19.453 39.1159C19.5498 39.2152 19.6353 39.3244 19.7273 39.4284C19.7597 39.4646 19.7838 39.5002 19.7697 39.5497C19.6972 39.8128 19.6232 40.0756 19.4688 40.3083C19.419 40.3829 19.3696 40.4772 19.2613 40.4647C19.1437 40.4515 19.1431 40.3369 19.1147 40.2549C19.0875 40.1634 19.0742 40.0689 19.0754 39.9745C19.0635 39.6149 19.1135 39.262 19.1906 38.9127C19.1937 38.8984 19.2039 38.8859 19.2204 38.8554Z" fill="url(#paint6_linear)"/>
<defs>
<linearGradient id="paint0_linear" x1="-3.1985" y1="3.76975" x2="39.057" y2="23.4738" gradientUnits="userSpaceOnUse">
<stop stop-color="#568203"/>
<stop offset="0.317708" stop-color="#568203"/>
<stop offset="0.854167" stop-color="#568203"/>
<stop offset="1" stop-color="#568203"/>
</linearGradient>
<linearGradient id="paint1_linear" x1="5.09735" y1="4.03459" x2="32.0449" y2="24.1512" gradientUnits="userSpaceOnUse">
<stop stop-color="#568203"/>
<stop offset="0.400253" stop-color="#568203"/>
<stop offset="1" stop-color="#568203"/>
</linearGradient>
<linearGradient id="paint2_linear" x1="16.2293" y1="8.60442" x2="27.162" y2="16.7657" gradientUnits="userSpaceOnUse">
<stop stop-color="#568203"/>
<stop offset="1" stop-color="#568203"/>
</linearGradient>
<linearGradient id="paint3_linear" x1="4.74881" y1="27.1595" x2="9.287" y2="30.5473" gradientUnits="userSpaceOnUse">
<stop stop-color="#177775"/>
<stop offset="1" stop-color="#568203"/>
</linearGradient>
<linearGradient id="paint4_linear" x1="8.44964" y1="23.6511" x2="11.5686" y2="25.9794" gradientUnits="userSpaceOnUse">
<stop stop-color="#568203"/>
<stop offset="1" stop-color="#568203"/>
</linearGradient>
<linearGradient id="paint5_linear" x1="2.59452" y1="32.9926" x2="4.32329" y2="34.2832" gradientUnits="userSpaceOnUse">
<stop stop-color="#177775"/>
<stop offset="1" stop-color="#568203"/>
</linearGradient>
<linearGradient id="paint6_linear" x1="0.810058" y1="37.2008" x2="1.44287" y2="37.6732" gradientUnits="userSpaceOnUse">
<stop stop-color="#177775"/>
<stop offset="1" stop-color="#568203"/>
</linearGradient>
</defs>
</svg>
