<svg width="220" height="54" viewBox="0 0 220 54" fill="none" xmlns="http://www.w3.org/2000/svg">
<path d="M86.8818 7.81104V8.36754C91.357 8.34435 91.3338 16.0657 91.3338 16.0657V23.9494L78.2562 7.81104H70.3029V8.36754C71.1377 8.4371 72.0884 8.08929 74.152 10.6863L75.4273 12.263V22.3958C75.4273 22.3958 75.4505 30.1172 70.558 30.1172V30.6737H80.4126V30.1172C75.9374 30.1172 75.9838 22.3958 75.9838 22.3958V12.8427L90.1512 30.6737H91.8903V16.0657C91.8903 16.0657 91.8207 8.34435 96.7132 8.36754V7.81104H86.8818ZM102.626 22.3263C102.626 19.2192 103.948 15.9266 105.872 15.9266C107.658 15.9266 108.979 18.2453 108.979 22.3263H102.626ZM106.035 15.3933C101.559 15.3933 98.4291 18.6627 98.4291 23.2306C98.4291 27.0333 101.351 30.9751 105.617 30.9751C109.953 30.9751 111.878 28.4013 112.388 26.7087L111.855 26.4304C111.043 27.9376 108.446 28.5868 106.684 28.2158C104.504 27.7289 102.881 26.0594 102.626 22.8828H112.944C112.944 17.8279 110.742 15.3933 106.035 15.3933ZM129.732 26.7087V20.309C129.732 16.3903 128.178 15.3933 125.651 15.3933C123.587 15.3933 121.037 16.8773 120.295 18.8482V15.3933L114.614 16.6918V17.2251C115.935 17.9439 116.237 18.3149 116.237 19.4511V26.7782C116.237 28.4245 116.191 29.7694 114.962 30.1172V30.6737H121.616V30.1172C120.48 29.7926 120.295 28.5637 120.295 26.7782V20.3785C120.295 19.0801 121.779 17.712 123.054 17.712C124.677 17.712 125.674 18.8482 125.674 20.4249V26.7087C125.674 28.3782 125.605 29.7694 124.376 30.1172V30.6737H131.054V30.1172C129.894 29.839 129.732 28.4941 129.732 26.7087ZM138.265 10.5703C138.265 9.3414 137.268 8.36754 136.039 8.36754C134.787 8.36754 133.813 9.3414 133.813 10.5703C133.813 11.8224 134.787 12.7963 136.039 12.7963C137.268 12.7963 138.265 11.8224 138.265 10.5703ZM138.358 26.7087V15.3933L132.677 16.6918V17.2251C134.022 17.9439 134.346 18.4076 134.346 19.4974V26.7087C134.346 28.3782 134.277 29.723 133.048 30.1172V30.6737H139.702V30.1172C138.52 29.7926 138.358 28.5405 138.358 26.7087ZM159.528 23.6016C158.16 30.1172 149.557 30.1172 149.557 30.1172H148.398V19.4047H149.557C149.557 19.4047 154.496 19.4047 154.821 22.79H155.377V15.486H154.821C154.496 18.8482 149.557 18.8482 149.557 18.8482H148.398V8.36754H149.557C149.557 8.36754 158.368 8.36754 159.11 13.9789H159.667V7.81104H141.812V8.36754C143.227 8.36754 143.691 10.2921 143.691 12.3094V26.2217C143.691 28.4245 143.181 30.1172 141.812 30.1172V30.6737H160.084V23.6016H159.528ZM187.445 30.1172C186.286 29.839 186.123 28.4941 186.123 26.7087V20.309C186.123 16.3903 184.57 15.3933 182.019 15.3933C179.979 15.3933 177.776 16.8541 177.104 18.825C176.709 16.4135 175.318 15.3933 173.046 15.3933C170.982 15.3933 169.011 16.8541 168.13 18.7323V15.3933L162.449 16.6918V17.2251C163.794 17.9439 164.072 18.5236 164.072 19.6597V26.7782C164.072 28.4245 164.049 29.7694 162.82 30.1172V30.6737H169.475V30.1172C168.339 29.7926 168.13 28.5637 168.13 26.7782V20.3785C168.13 19.2192 169.521 17.712 170.727 17.712C172.188 17.712 173.069 18.5931 173.069 20.4249V26.7087C173.069 28.3782 172.999 29.7694 171.77 30.1172V30.6737H178.448V30.1172C177.289 29.839 177.127 28.4941 177.127 26.7087V20.4713C177.127 19.1728 178.495 17.712 179.701 17.712C181.161 17.712 182.066 18.5931 182.066 20.4249V26.7087C182.066 28.3782 181.996 29.7694 180.767 30.1172V30.6737H187.445V30.1172ZM197.763 22.2567L194.494 20.2162C191.665 18.4308 192.569 15.9266 194.679 15.9266C198.042 15.9266 199.062 18.8482 199.502 19.9844H200.036V16.3671C200.036 16.3671 198.413 15.3933 194.679 15.3933C191.433 15.3933 190.204 17.0164 190.204 17.0164C188.419 19.3351 189.277 21.9785 192.407 23.8798L195.7 25.8739C198.158 27.497 197.763 30.4186 195.468 30.4186C191.665 30.4186 190.622 26.6391 190.135 25.387H189.601V29.468C189.601 29.468 191.549 30.9751 195.468 30.9751C198.784 30.9751 200.013 29.2129 200.013 29.2129C201.636 26.871 200.662 24.0421 197.763 22.2567ZM218.354 27.6825V15.3933L212.766 15.9962V16.5526C214.435 16.7381 214.296 17.1787 214.296 19.1496V26.4768C213.623 27.7753 212.371 28.5868 211.467 28.5868C209.589 28.5868 208.754 27.7289 208.754 25.8971V15.3933L202.911 15.9962V16.5526C204.789 16.8077 204.72 17.1091 204.72 19.0569V25.9899C204.72 29.8853 206.25 30.9751 208.801 30.9751C210.818 30.9751 213.508 29.3056 214.296 27.4507V30.3259C214.296 30.3259 214.319 31.0679 215.2 30.9288L220 30.094V29.5375C218.655 29.3752 218.354 29.2361 218.354 27.6825Z" fill="white"/>
<path d="M73.7949 41.0389L72.3354 43.5889L70.8491 41.0389H70.3029V46.4114H70.773V41.9662L72.3354 44.522L73.871 41.9662V46.4114H74.341V41.0389H73.7949ZM80.3535 41.0389H79.7625L78.0031 46.4114H78.5224L79.0283 44.8524H81.0832L81.5936 46.4114H82.1129L80.3535 41.0389ZM79.2119 44.296L80.058 41.6706L80.9041 44.296H79.2119ZM89.2132 41.0389H88.5506L86.245 43.8381V41.0389H85.7749V46.4114H86.245V44.6495L87.1001 43.6121L88.7252 46.4114H89.3161L87.4448 43.2006L89.2132 41.0389ZM93.3945 41.0389H92.9245V46.4114H93.3945V41.0389ZM100.652 41.0389V45.5594L98.0908 41.0389H97.5446V46.4114H98.0147V41.8734L100.575 46.4114H101.122V41.0389H100.652ZM107.053 40.9751C105.804 40.9751 105.008 42.198 105.008 43.728C105.008 45.2523 105.773 46.4751 107.04 46.4751C107.792 46.4751 108.28 45.9825 108.544 45.4609V46.4114H108.974V43.5542H107.027V44.1047H108.544C108.544 45.2291 107.828 45.884 107.076 45.884C106.069 45.884 105.478 44.9335 105.478 43.728C105.478 42.5168 106.082 41.5663 107.089 41.5663C107.72 41.5663 108.173 41.9256 108.423 42.4994H108.938C108.629 41.6011 107.94 40.9751 107.053 40.9751ZM120.35 41.0389H116.988V41.6242H118.434V46.4114H118.904V41.6242H120.35V41.0389ZM126.962 41.0389V43.4267H124.549V41.0389H124.079V46.4114H124.549V44.0178H126.962V46.4114H127.432V41.0389H126.962ZM134.635 41.6242V41.0389H131.582V46.4114H134.635V45.826H132.052V44.0178H134.358V43.4267H132.052V41.6242H134.635ZM145.492 41.9024L146.611 46.4114H147.144L148.437 41.0389H147.941L146.875 45.5536L145.76 41.0389H145.223L144.104 45.5536L143.038 41.0389H142.546L143.835 46.4114H144.368L145.492 41.9024ZM155.189 41.6242V41.0389H152.135V46.4114H155.189V45.826H152.605V44.0178H154.911V43.4267H152.605V41.6242H155.189ZM161.693 43.6701C161.989 43.4962 162.249 43.1485 162.249 42.4588C162.249 41.8097 161.917 41.0389 160.941 41.0389H159.079V46.4114H161.049C161.993 46.4114 162.463 45.8028 162.463 44.9973C162.463 44.1975 162.043 43.815 161.693 43.6701ZM159.549 41.6184H160.991C161.559 41.6184 161.779 42.0647 161.779 42.511C161.779 43.1659 161.371 43.4441 160.941 43.4441H159.549V41.6184ZM161.098 45.8376H159.549V43.9946H161.049C161.707 43.9946 161.993 44.4467 161.993 44.9509C161.993 45.5131 161.667 45.8376 161.098 45.8376ZM172.693 41.0389H172.102L170.343 46.4114H170.862L171.368 44.8524H173.427L173.933 46.4114H174.452L172.693 41.0389ZM171.551 44.296L172.398 41.6706L173.244 44.296H171.551ZM180.402 41.9024L181.521 46.4114H182.054L183.348 41.0389H182.851L181.786 45.5536L180.671 41.0389H180.134L179.014 45.5536L177.949 41.0389H177.456L178.746 46.4114H179.279L180.402 41.9024ZM190.099 41.6242V41.0389H187.046V46.4114H190.099V45.826H187.516V44.0178H189.822V43.4267H187.516V41.6242H190.099ZM194.213 42.453C194.213 42.0937 194.379 41.5431 195.319 41.5431C196.076 41.5431 196.429 41.972 196.479 42.511H196.962C196.922 41.7054 196.42 40.9751 195.319 40.9751C194.276 40.9751 193.757 41.5837 193.757 42.4588C193.757 44.3018 196.595 43.6353 196.595 44.9509C196.595 45.5826 196.156 45.9014 195.458 45.9014C194.737 45.9014 194.151 45.5826 194.119 44.806H193.631C193.694 45.7681 194.195 46.4751 195.427 46.4751C196.447 46.4751 197.065 45.9246 197.065 44.9277C197.065 43.05 194.213 43.6991 194.213 42.453ZM202.769 40.9751C201.511 40.9751 200.664 42.198 200.664 43.728C200.664 45.2523 201.511 46.4751 202.769 46.4751C204.031 46.4751 204.877 45.2523 204.877 43.728C204.877 42.198 204.031 40.9751 202.769 40.9751ZM202.769 45.884C201.761 45.884 201.135 44.9335 201.135 43.728C201.135 42.5168 201.761 41.5663 202.769 41.5663C203.78 41.5663 204.407 42.5168 204.407 43.728C204.407 44.9335 203.78 45.884 202.769 45.884ZM212.255 41.0389L210.791 43.5889L209.309 41.0389H208.763V46.4114H209.233V41.9662L210.791 44.522L212.327 41.9662V46.4114H212.797V41.0389H212.255ZM220 41.6242V41.0389H216.947V46.4114H220V45.826H217.417V44.0178H219.722V43.4267H217.417V41.6242H220Z" fill="white"/>
<path d="M10.6761 18.2477C10.5283 18.0998 10.3529 17.9824 10.1598 17.9024C9.96672 17.8223 9.75973 17.7811 9.55069 17.7811C9.34165 17.7811 9.13467 17.8223 8.94157 17.9024C8.74847 17.9824 8.57304 18.0998 8.42533 18.2477L0.466571 26.2064C0.318663 26.3541 0.201324 26.5296 0.121266 26.7227C0.0412075 26.9158 0 27.1228 0 27.3318C0 27.5408 0.0412075 27.7478 0.121266 27.9409C0.201324 28.134 0.318663 28.3094 0.466571 28.4572L8.42533 36.4159C8.73604 36.7273 9.14289 36.8826 9.55038 36.8826C9.95786 36.8826 10.3647 36.7273 10.6761 36.4166C10.824 36.2688 10.9413 36.0934 11.0214 35.9003C11.1014 35.7072 11.1426 35.5002 11.1426 35.2912C11.1426 35.0822 11.1014 34.8752 11.0214 34.6821C10.9413 34.489 10.824 34.3135 10.6761 34.1658L3.84236 27.3321L10.6754 20.499C10.8233 20.3513 10.9407 20.1758 11.0207 19.9827C11.1008 19.7896 11.142 19.5826 11.1421 19.3735C11.1422 19.1644 11.101 18.9574 11.0211 18.7642C10.9411 18.5711 10.8239 18.3955 10.6761 18.2477ZM56.8368 26.2064L48.8781 18.2477C48.7304 18.0998 48.5549 17.9824 48.3618 17.9024C48.1687 17.8223 47.9618 17.7811 47.7527 17.7811C47.5437 17.7811 47.3367 17.8223 47.1436 17.9024C46.9505 17.9824 46.7751 18.0998 46.6273 18.2477C46.4794 18.3954 46.3621 18.5708 46.282 18.7639C46.202 18.957 46.1608 19.164 46.1608 19.373C46.1608 19.5821 46.202 19.7891 46.282 19.9822C46.3621 20.1753 46.4794 20.3507 46.6273 20.4984L53.4604 27.3321L46.6267 34.1652C46.4034 34.3876 46.2512 34.6712 46.1894 34.9803C46.1276 35.2893 46.159 35.6097 46.2796 35.9008C46.4002 36.192 46.6046 36.4407 46.8668 36.6155C47.129 36.7903 47.4373 36.8833 47.7524 36.8826C48.1599 36.8826 48.5667 36.7273 48.8781 36.4166L56.8368 28.4578C57.1353 28.1592 57.3029 27.7543 57.3029 27.3321C57.3029 26.9099 57.1353 26.505 56.8368 26.2064Z" fill="url(#paint0_linear)"/>
<path d="M31.5983 13.9151C31.7546 13.1408 31.9556 12.265 32.108 11.3801C32.1124 11.3563 32.1163 11.3319 32.123 11.3085C32.1565 11.1923 32.1784 11.1752 32.302 11.2196C32.4551 11.2746 32.6103 11.3186 32.7713 11.3408C33.1372 11.3903 33.4851 11.3433 33.7904 11.1483C34.0159 11.0045 34.1842 10.8021 34.3364 10.5915C34.5681 10.2715 34.7934 9.94745 35.0192 9.62349C35.3497 9.14947 35.7365 8.7224 36.2225 8.38621C36.5993 8.12603 37.0196 7.94591 37.4869 7.87625C37.7646 7.83465 38.0262 7.91363 38.28 8.01575C38.775 8.21485 39.2242 8.49133 39.6611 8.78555C40.6731 9.46691 41.6329 10.2147 42.6285 10.9159C43.4838 11.5187 44.361 12.0884 45.299 12.5685C45.9496 12.9015 46.6222 13.191 47.3331 13.3714C48.1592 13.5816 48.9988 13.7022 49.852 13.5737C50.2284 13.517 50.6064 13.4842 50.9909 13.5119C51.1269 13.521 51.2595 13.5591 51.3789 13.6233C51.4972 13.6862 51.5297 13.7603 51.5085 13.8856C51.4898 13.9972 51.4319 14.0912 51.3644 14.1806C51.1798 14.4258 50.9428 14.6224 50.6788 14.7838C50.1516 15.1067 49.5779 15.329 48.9478 15.4156C48.5779 15.4705 48.2002 15.4715 47.8276 15.4184C47.6422 15.3906 47.6187 15.4029 47.6192 15.5751C47.6195 15.7514 47.5199 15.8446 47.3601 15.8947C47.1232 15.969 46.8769 15.9615 46.631 15.9426C45.9552 15.8915 45.3257 15.6849 44.7217 15.3948L44.6339 15.3541C44.5601 15.3199 44.5076 15.3383 44.4816 15.4102C44.4631 15.4617 44.4496 15.5152 44.4332 15.5677C44.2642 16.1143 43.9187 16.3202 43.3984 16.3212C43.0311 16.3217 42.6991 16.2001 42.367 16.0721C42.2344 16.0208 42.1071 15.9574 41.9787 15.8966C41.7588 15.7921 41.7596 15.7911 41.6212 15.9693C41.5265 16.0915 41.4314 16.213 41.3102 16.3142C41.0134 16.5622 40.6673 16.6519 40.272 16.6038C39.8797 16.5557 39.5189 16.419 39.1705 16.244C39.0322 16.1746 38.8939 16.1045 38.7536 16.0393C38.5726 15.9545 38.5722 15.9567 38.4512 16.0998C38.411 16.1467 38.3702 16.1936 38.3263 16.2376C38.0157 16.5476 37.6269 16.6026 37.2047 16.5026C36.6824 16.3792 36.2414 16.1042 35.8282 15.7835C35.7879 15.752 35.7491 15.7186 35.7081 15.6876C35.4676 15.5033 35.4649 15.5016 35.2011 15.6556C35.0591 15.7382 34.9233 15.8299 34.7818 15.9131C34.3758 16.1508 33.9406 16.1514 33.4931 16.0171C32.7937 15.8073 32.1558 15.4675 31.5149 15.1347C31.4074 15.0789 31.3953 15.0029 31.4149 14.9029C31.4723 14.6103 31.5246 14.3157 31.5983 13.9151ZM28.9232 13.8592C28.8797 14.0954 28.8447 14.2692 28.8168 14.4442C28.8012 14.5426 28.7484 14.5918 28.6426 14.6061C27.9263 14.6997 27.2089 14.7795 26.4805 14.7308C25.9655 14.6962 25.5434 14.4967 25.244 14.0819C25.1627 13.9698 25.0793 13.8589 24.9931 13.7498C24.8438 13.5617 24.8125 13.5473 24.5847 13.621C24.286 13.7176 23.9832 13.7964 23.671 13.8477C23.3853 13.8994 23.0913 13.9038 22.802 13.8607C22.3313 13.7833 21.9909 13.5422 21.8385 13.0933C21.7607 12.8633 21.7581 12.864 21.4991 12.8862C21.2741 12.9054 21.0493 12.9265 20.8242 12.9428C20.5726 12.9578 20.3193 12.9418 20.0707 12.8953C19.4996 12.7966 19.1441 12.4756 18.9606 11.9654C18.9352 11.8955 18.9162 11.8239 18.8953 11.7526C18.8459 11.5822 18.8465 11.5824 18.6548 11.5952C18.4938 11.6062 18.3332 11.6247 18.1715 11.6259C17.8288 11.6281 17.4874 11.6271 17.1562 11.5038C16.6091 11.3009 16.37 10.9475 16.4237 10.398C16.4495 10.1356 16.4478 10.1313 16.1787 10.1596C15.6936 10.21 15.2087 10.1804 14.7281 10.1074C14.3898 10.0561 14.0556 9.96608 13.7518 9.79984C13.6834 9.76373 13.6186 9.72175 13.5582 9.67446C13.4342 9.57275 13.3817 9.45557 13.4453 9.29795C13.5091 9.13923 13.4856 9.11491 13.3052 9.07315C12.3918 8.86234 11.6608 8.3785 11.0589 7.70105C10.8286 7.4473 10.6421 7.161 10.5066 6.85311C10.4476 6.71528 10.4001 6.57387 10.3984 6.42484C10.3958 6.21788 10.4795 6.14233 10.6948 6.123C10.9051 6.10503 11.0896 6.18756 11.2774 6.25184C11.5167 6.33357 11.7413 6.44865 11.9609 6.57137C12.5457 6.89909 13.172 7.10744 13.8351 7.23392C14.7702 7.41269 15.7022 7.40672 16.6367 7.31142C17.6083 7.21262 18.5601 7.02326 19.4978 6.77813C20.521 6.51094 21.5382 6.22322 22.5618 5.95669C23.1757 5.79671 23.7914 5.63937 24.4296 5.57481C24.6937 5.54786 24.9581 5.53871 25.2229 5.56394C25.4907 5.58971 25.714 5.71828 25.9215 5.87423C26.4749 6.29054 26.8399 6.83009 27.0882 7.44711C27.2996 7.97386 27.4193 8.52148 27.5546 9.06627C27.6169 9.31795 27.6915 9.56615 27.7933 9.80793C27.9789 10.2476 28.3394 10.4883 28.8027 10.6089C28.94 10.6445 29.0814 10.6642 29.2255 10.6661C29.3999 10.6684 29.4255 10.6977 29.4187 10.8663C29.4157 10.9453 29.4025 11.024 29.3887 11.1022L29.0561 12.9611C28.9975 13.2797 28.9922 13.6059 28.9232 13.8592ZM25.0906 16.4548C25.3517 16.4839 25.6249 16.5656 25.8989 16.6434C26.0499 16.6866 26.1871 16.7622 26.3039 16.8632C26.703 17.2076 26.9993 17.6162 27.1587 18.1059C27.1646 18.1236 27.1697 18.1417 27.1744 18.1591C27.273 18.521 27.2044 18.6399 26.8334 18.7399C26.2345 18.9014 25.6326 18.8674 25.0321 18.7141C24.8813 18.6727 24.7404 18.603 24.6176 18.5093C24.4005 18.3504 24.1778 18.1979 23.9638 18.035C23.6156 17.7703 23.2176 17.6079 22.7951 17.493C22.3503 17.3759 21.9003 17.2792 21.4465 17.2033C21.2994 17.178 21.15 17.1693 21.0015 17.1776C20.4655 17.2049 20.16 17.6486 20.3386 18.1362C20.3992 18.3017 20.4996 18.4454 20.6224 18.5761C21.021 19.0029 21.5009 19.3336 22.006 19.6329C23.0039 20.223 24.0745 20.6549 25.1902 20.987C25.7363 21.1492 26.2882 21.2866 26.8468 21.4036C27.8993 21.624 28.9467 21.8652 29.9489 22.2633C31.0105 22.685 32.0387 23.1628 32.948 23.8482C33.4762 24.2461 33.9222 24.709 34.2057 25.2959C34.4492 25.8 34.5392 26.321 34.3961 26.8552C34.2783 27.2945 34.028 27.6689 33.7048 27.9973C33.1983 28.511 32.5748 28.866 31.9049 29.1558C31.2839 29.4243 30.6334 29.6152 29.9726 29.7797C29.8479 29.8112 29.7556 29.7948 29.6563 29.7079C29.3862 29.4738 29.0962 29.2613 28.7893 29.0726C28.7256 29.0329 28.6434 28.9983 28.6502 28.9086C28.6581 28.806 28.6609 28.6984 28.7239 28.6099C28.763 28.5559 28.8366 28.558 28.8995 28.5461C29.3349 28.462 29.7725 28.3857 30.2009 28.274C30.619 28.165 31.0208 28.0163 31.3823 27.7928C31.8075 27.5301 32.1408 27.1893 32.2144 26.6864C32.2757 26.2675 32.1342 25.8852 31.8923 25.5336C31.5731 25.0682 31.1346 24.7165 30.6502 24.417C30.1436 24.098 29.5926 23.8488 29.0142 23.6769C28.8275 23.6226 28.6373 23.5813 28.449 23.5359C27.7315 23.3622 27.0203 23.1668 26.3072 22.9791C25.3601 22.7301 24.4281 22.4386 23.538 22.0319C22.468 21.5435 21.4732 20.9466 20.5888 20.1886C20.0372 19.716 19.5525 19.1905 19.2056 18.565C19.0256 18.2402 18.9015 17.8988 18.9008 17.5258C18.9007 17.1471 19.0697 16.8579 19.3735 16.6318C19.5774 16.48 19.8087 16.3772 20.0582 16.3075C20.5953 16.1586 21.1488 16.1254 21.7069 16.1336C22.2243 16.1412 22.7395 16.1942 23.2536 16.2601C23.4972 16.2917 23.744 16.2993 23.9893 16.3153C24.3501 16.3398 24.7113 16.3725 25.0906 16.4548Z" fill="url(#paint1_linear)"/>
<path d="M28.3341 19.8331C28.3728 19.6228 28.4186 19.4133 28.449 19.2016C28.6007 18.1553 28.8171 17.1199 28.9757 16.0755C29.1012 15.2475 29.2772 14.4287 29.3943 13.6003C29.5148 12.7468 29.7018 11.905 29.8216 11.0519C29.9295 10.283 30.0981 9.52469 30.2052 8.75681C30.285 8.18751 30.3864 7.62276 30.486 7.05768C30.4962 7.01337 30.4939 6.96708 30.4794 6.92338C30.4649 6.87968 30.4386 6.84008 30.4032 6.80852C29.9864 6.39214 29.815 5.89506 29.8678 5.33683C29.9037 4.96192 30.0695 4.61126 30.3395 4.33911C30.8068 3.85364 31.4044 3.65349 32.086 3.77193C33.2439 3.97335 33.8292 5.01495 33.6924 5.83802C33.5882 6.46747 33.2441 6.91325 32.6641 7.20299C32.6125 7.22583 32.568 7.26052 32.5345 7.30396C32.501 7.3474 32.4795 7.39824 32.4721 7.45195C32.2894 8.35008 32.1178 9.25025 31.9311 10.1471C31.7488 11.0201 31.6044 11.9013 31.4087 12.7707C31.2273 13.5758 31.1093 14.3932 30.9257 15.1968C30.7224 16.0848 30.5936 16.9871 30.3922 17.8744C30.199 18.7271 30.0663 19.591 29.8826 20.4449C29.8059 20.8031 29.725 21.1606 29.6535 21.5198C29.6228 21.6737 29.579 21.7006 29.4286 21.6472C29.0503 21.513 28.6613 21.414 28.2771 21.2988C28.1068 21.248 28.0895 21.2294 28.1194 21.0605C28.191 20.651 28.2684 20.2431 28.3436 19.8342L28.3341 19.8331V19.8331ZM26.2568 23.3948C26.1947 23.4652 26.1243 23.4523 26.065 23.4614C25.5175 23.5477 24.9985 23.7034 24.5578 24.0274C24.0693 24.3871 23.7801 24.851 23.848 25.4623C23.8983 25.9148 24.1182 26.3064 24.4287 26.6546C24.8081 27.0796 25.2668 27.4138 25.7529 27.7206C26.6884 28.31 27.6493 28.8602 28.5947 29.4349C29.2646 29.8377 29.8383 30.3701 30.277 30.9962C30.6398 31.5147 30.883 32.0771 30.8833 32.7057C30.8836 33.3315 30.6721 33.8909 30.3017 34.397C29.8145 35.0636 29.165 35.5562 28.4301 35.9587C28.2466 36.0588 28.0554 36.1449 27.867 36.2355C27.7738 36.2807 27.7029 36.2734 27.6278 36.1933C27.5502 36.1104 27.4592 36.0376 27.3705 35.9653C27.2882 35.8981 27.2541 35.8226 27.2765 35.7209C27.3116 35.5598 27.3432 35.3974 27.3683 35.2345C27.3869 35.1138 27.4568 35.0437 27.5689 34.9888C28.0276 34.7694 28.4461 34.4832 28.8093 34.1404C29.1246 33.838 29.3626 33.494 29.4322 33.0561C29.5037 32.6048 29.3566 32.2066 29.1028 31.8339C28.732 31.2893 28.2197 30.8771 27.6692 30.5048C27.0572 30.0903 26.3909 29.7596 25.7528 29.3849C24.7894 28.8189 23.884 28.1812 23.1119 27.3866C22.6393 26.9005 22.2421 26.3676 21.9881 25.7484C21.8131 25.3205 21.7394 24.8796 21.8051 24.4301C21.8636 24.0291 22.0485 23.6736 22.3161 23.3636C22.6197 23.0127 22.9964 22.7428 23.4222 22.5328C23.5143 22.4874 23.5942 22.5016 23.6803 22.5385C24.0779 22.7094 24.4847 22.8603 24.8971 22.9939C25.1984 23.0916 25.5011 23.1844 25.8093 23.2611C25.9566 23.2979 26.0998 23.3477 26.2568 23.3948V23.3948ZM30.8718 22.1453C31.0804 22.1756 31.291 22.1955 31.4995 22.2235C32.1928 22.3147 32.8906 22.3646 33.5888 22.3731C34.5019 22.3905 35.4118 22.3075 36.3002 22.1257C36.754 22.0307 37.1963 21.9027 37.6093 21.6995C37.7528 21.6286 37.8818 21.5408 37.9922 21.429C38.1546 21.2655 38.2214 21.0702 38.2113 20.8447C38.2007 20.6082 38.0837 20.4363 37.8691 20.3191C37.7167 20.2346 37.5517 20.173 37.3802 20.1365C36.8034 20.0134 36.2184 19.932 35.6304 19.8932C35.2641 19.8722 34.9098 19.934 34.5628 20.0327C34.347 20.0937 34.1305 20.1523 33.9145 20.2115C33.7005 20.2699 33.4846 20.2755 33.2625 20.2392C32.7098 20.149 32.1956 19.9721 31.7436 19.6443C31.4352 19.4205 31.4062 19.2911 31.6219 18.9961C31.9494 18.5479 32.4037 18.2522 32.942 18.0675C33.2245 17.9701 33.5188 18.0231 33.8061 18.061C34.4958 18.1523 35.1601 18.3483 35.8213 18.5579C36.0489 18.63 36.2843 18.6802 36.5151 18.7415C37.3009 18.95 38.0625 19.2147 38.7502 19.6494C39.0079 19.8123 39.2322 20.0086 39.4105 20.2501C39.738 20.6935 39.7423 21.1427 39.466 21.5958C39.2739 21.9111 39.0086 22.1626 38.704 22.38C38.0313 22.8603 37.2721 23.1806 36.4679 23.4154C35.6123 23.6627 34.7285 23.8194 33.8325 23.8827C33.7255 23.8905 33.6323 23.8825 33.5449 23.8069C32.8379 23.1959 32.0252 22.7411 31.1734 22.3432C31.069 22.2942 30.9661 22.2433 30.8624 22.1933L30.8718 22.1453V22.1453Z" fill="url(#paint2_linear)"/>
<path d="M26.2465 40.9079C26.2702 40.7819 26.3039 40.6582 26.3359 40.5337C26.3493 40.4807 26.374 40.4311 26.4085 40.3878C26.4429 40.3445 26.4864 40.3084 26.5364 40.2817C26.72 40.1708 26.8927 40.0469 27.0468 39.8985C27.3734 39.584 27.46 39.2121 27.341 38.7864C27.2734 38.5546 27.1699 38.3328 27.0342 38.1283C26.6671 37.5598 26.2066 37.0645 25.6944 36.6088C25.2756 36.2362 24.8171 35.9042 24.4305 35.4985C23.8738 34.9152 23.4055 34.28 23.105 33.5447C22.8615 32.948 22.7483 32.3387 22.8671 31.7056C22.9621 31.1992 23.2 30.7631 23.5572 30.3849C23.9249 29.9955 24.3719 29.7065 24.8653 29.4757C24.9609 29.4309 25.0382 29.4263 25.1346 29.4863C25.4184 29.6621 25.7089 29.8287 25.9975 29.9984C26.1574 30.0925 26.1551 30.1081 26.1426 30.2819C26.128 30.4868 26.0207 30.5884 25.82 30.6567C25.4373 30.7854 25.0872 30.9855 24.79 31.2452C24.2732 31.6993 24.1176 32.2587 24.2823 32.9107C24.3604 33.219 24.4989 33.5053 24.6773 33.7731C24.9988 34.2555 25.3702 34.7013 25.7891 35.1129C26.2165 35.5317 26.6723 35.921 27.1308 36.3084C27.6777 36.7704 28.1381 37.296 28.4337 37.9366C28.6254 38.3528 28.7038 38.7881 28.6385 39.232C28.5949 39.5288 28.4729 39.8061 28.3102 40.0639C28.1455 40.3172 27.9444 40.5471 27.7124 40.7473C27.3689 41.0473 26.985 41.3036 26.5704 41.5097C26.4184 41.587 26.4119 41.5761 26.2998 41.4462C26.2042 41.336 26.1717 41.2219 26.2117 41.0868C26.2296 41.0295 26.2354 40.9682 26.2465 40.9079V40.9079Z" fill="url(#paint3_linear)"/>
<path d="M25.1416 46.7298C25.1021 46.6705 25.1177 46.6219 25.1316 46.5764C25.2613 46.1478 25.3121 45.7036 25.3985 45.2665C25.4639 44.937 25.5804 44.6204 25.6231 44.2857C25.7236 43.4914 25.5276 42.7782 24.9556 42.1628C24.5933 41.7731 24.2206 41.3906 23.869 40.9925C23.4179 40.4817 23.0319 39.9303 22.8402 39.2831C22.6347 38.5887 22.7195 37.9357 23.1451 37.3407C23.484 36.8671 23.9567 36.5405 24.4813 36.272C24.5529 36.2354 24.6152 36.2366 24.6746 36.2932L24.6893 36.3057C25.1215 36.6745 25.0463 36.5229 24.9903 37.0285C24.9526 37.3659 24.8299 37.6241 24.5241 37.8116C24.3477 37.9193 24.2146 38.0824 24.1007 38.2531C23.8727 38.5955 23.8356 38.9553 24.0169 39.3358C24.1659 39.648 24.37 39.9275 24.6027 40.1871C25.0417 40.6773 25.5068 41.1483 25.929 41.6509C26.4324 42.2502 26.7007 42.9332 26.6469 43.7046C26.566 44.8708 26.0349 45.8387 25.2305 46.6855C25.2174 46.6987 25.2026 46.7104 25.1864 46.7203C25.1764 46.7253 25.1624 46.7256 25.1416 46.7298V46.7298ZM28.9359 25.212C28.6918 26.3019 28.4912 27.3998 28.2876 28.4976C28.2842 28.5159 28.2815 28.5337 28.2764 28.5517C28.2385 28.6985 28.202 28.7187 28.0638 28.639C27.735 28.4498 27.4121 28.2521 27.0843 28.0608C26.9951 28.0084 26.9549 27.9432 26.98 27.846C26.9844 27.8285 26.986 27.81 26.9894 27.7917C27.1874 26.619 27.3695 25.4434 27.594 24.2749C27.6207 24.1496 27.6386 24.0226 27.6475 23.8947C27.6516 23.8165 27.6901 23.7653 27.7852 23.7896C28.1734 23.8896 28.5671 23.9665 28.9489 24.0882C29.1244 24.1439 29.1282 24.156 29.0975 24.3294C29.0458 24.6242 28.99 24.9176 28.9359 25.212V25.212ZM27.6995 31.4855C27.4568 32.4756 27.3106 33.492 27.1001 34.4948C27.0391 34.7873 26.971 35.0785 26.9105 35.3711C26.8805 35.5177 26.854 35.5231 26.7303 35.4203C26.4549 35.1918 26.2069 34.9369 25.9513 34.6897C25.8518 34.5936 25.8402 34.492 25.8627 34.3697C25.961 33.8415 26.0682 33.3145 26.1463 32.7837C26.2569 32.0537 26.3792 31.3255 26.5133 30.5994C26.566 30.3094 26.5686 30.3082 26.8417 30.4733C27.0891 30.6229 27.3283 30.7841 27.5684 30.9438C27.7247 31.048 27.7819 31.1661 27.7272 31.3345C27.7125 31.3815 27.7094 31.4313 27.6995 31.4855V31.4855Z" fill="url(#paint4_linear)"/>
<path d="M24.7588 48.3633C24.6151 48.27 24.5271 48.148 24.4282 48.0388C23.7947 47.3384 23.3287 46.5527 23.0649 45.6668C22.8944 45.0848 22.8308 44.4814 22.8769 43.8832C22.9029 43.5544 22.9712 43.2307 23.0803 42.9191C23.2242 42.4926 23.49 42.1394 23.8221 41.8286C23.8652 41.7885 23.8995 41.7245 23.9795 41.7449C24.0375 41.7596 24.1414 41.8971 24.1416 41.9623C24.1417 42.0109 24.1328 42.0596 24.124 42.1072C24.0087 42.738 23.9067 43.3719 23.7739 43.9989C23.6086 44.779 23.7034 45.544 23.9189 46.3065C24.1022 46.9568 24.3774 47.5759 24.6975 48.1781C24.7255 48.2308 24.7718 48.2793 24.7588 48.3633ZM26.1553 39.2313C26.0969 39.5495 26.0418 39.8688 25.9786 40.1861C25.9415 40.3714 25.8938 40.5548 25.8463 40.7377C25.8178 40.8463 25.7756 40.858 25.6914 40.7681C25.4529 40.5138 25.2223 40.2529 24.9873 39.9964C24.9171 39.9194 24.9366 39.8361 24.9515 39.7519C25.0254 39.3433 25.1088 38.936 25.1709 38.5253C25.2374 38.0845 25.2991 37.6435 25.382 37.2057C25.3874 37.1758 25.3919 37.1452 25.3985 37.1155C25.4313 36.9671 25.4585 36.9578 25.5764 37.0659C25.8344 37.3032 26.0766 37.5536 26.2963 37.8239C26.3314 37.8644 26.3562 37.9117 26.3691 37.9623C26.3819 38.0128 26.3822 38.0653 26.3702 38.1155C26.2976 38.4871 26.2315 38.8599 26.1631 39.2322L26.1553 39.2313V39.2313Z" fill="url(#paint5_linear)"/>
<path d="M24.6319 46.9209C24.556 46.8978 24.548 46.8592 24.5359 46.8255C24.3061 46.181 24.1182 45.5293 24.1176 44.8457C24.1174 44.7908 24.1167 44.7352 24.1237 44.681C24.2197 43.9539 24.3516 43.2329 24.4824 42.5117L24.4857 42.4934C24.5016 42.45 24.4876 42.3845 24.5534 42.3761C24.6038 42.3693 24.6259 42.4208 24.656 42.4521C25.0337 42.8401 25.1922 43.3051 25.2189 43.8167C25.2237 43.9097 25.2072 43.9993 25.19 44.0894L24.7952 46.1977C24.751 46.4378 24.665 46.6679 24.6319 46.9209V46.9209ZM23.6228 47.7552C23.7527 47.8512 23.8132 47.9773 23.9087 48.0754C24.0276 48.1974 24.1328 48.3317 24.2459 48.4594C24.2856 48.5039 24.3152 48.5477 24.298 48.6086C24.2088 48.9319 24.1179 49.2549 23.9281 49.5409C23.867 49.6326 23.8062 49.7485 23.6731 49.7331C23.5286 49.7169 23.5278 49.576 23.4929 49.4752C23.4595 49.3628 23.4432 49.2467 23.4446 49.1306C23.43 48.6887 23.4915 48.255 23.5862 47.8257C23.59 47.8081 23.6026 47.7927 23.6228 47.7552Z" fill="url(#paint6_linear)"/>
<defs>
<linearGradient id="paint0_linear" x1="-3.93112" y1="4.63321" x2="48.003" y2="28.8505" gradientUnits="userSpaceOnUse">
<stop stop-color="#568203"/>
<stop offset="0.317708" stop-color="#568203"/>
<stop offset="0.854167" stop-color="#568203"/>
<stop offset="1" stop-color="#568203"/>
</linearGradient>
<linearGradient id="paint1_linear" x1="6.2649" y1="4.95872" x2="39.3848" y2="29.683" gradientUnits="userSpaceOnUse">
<stop stop-color="#568203"/>
<stop offset="0.400253" stop-color="#568203"/>
<stop offset="1" stop-color="#568203"/>
</linearGradient>
<linearGradient id="paint2_linear" x1="19.9467" y1="10.5753" x2="33.3834" y2="20.6059" gradientUnits="userSpaceOnUse">
<stop stop-color="#568203"/>
<stop offset="1" stop-color="#568203"/>
</linearGradient>
<linearGradient id="paint3_linear" x1="5.83653" y1="33.3804" x2="11.4142" y2="37.5442" gradientUnits="userSpaceOnUse">
<stop stop-color="#177775"/>
<stop offset="1" stop-color="#568203"/>
</linearGradient>
<linearGradient id="paint4_linear" x1="10.385" y1="29.0684" x2="14.2184" y2="31.93" gradientUnits="userSpaceOnUse">
<stop stop-color="#177775"/>
<stop offset="1" stop-color="#568203"/>
</linearGradient>
<linearGradient id="paint5_linear" x1="3.18879" y1="40.5496" x2="5.31355" y2="42.1357" gradientUnits="userSpaceOnUse">
<stop stop-color="#177775"/>
<stop offset="1" stop-color="#568203"/>
</linearGradient>
<linearGradient id="paint6_linear" x1="0.995603" y1="45.7217" x2="1.77336" y2="46.3022" gradientUnits="userSpaceOnUse">
<stop stop-color="#177775"/>
<stop offset="1" stop-color="#568203"/>
</linearGradient>
</defs>
</svg>
