<svg width="200" height="45" viewBox="0 0 200 45" fill="none" xmlns="http://www.w3.org/2000/svg">
<path d="M9.52113 15.4371C9.3973 15.3131 9.25023 15.2148 9.08835 15.1476C8.92647 15.0805 8.75295 15.046 8.5777 15.046C8.40246 15.046 8.22893 15.0805 8.06705 15.1476C7.90517 15.2148 7.75811 15.3131 7.63427 15.4371L0.962194 22.1092C0.838197 22.233 0.739829 22.3801 0.672713 22.542C0.605598 22.7039 0.571053 22.8774 0.571053 23.0526C0.571053 23.2279 0.605598 23.4014 0.672713 23.5633C0.739829 23.7252 0.838197 23.8722 0.962194 23.9961L7.63427 30.6681C7.89475 30.9291 8.23582 31.0594 8.57744 31.0594C8.91905 31.0594 9.26012 30.9291 9.52113 30.6687C9.64513 30.5448 9.7435 30.3978 9.81061 30.2359C9.87773 30.074 9.91228 29.9005 9.91228 29.7252C9.91228 29.55 9.87773 29.3765 9.81061 29.2146C9.7435 29.0527 9.64513 28.9056 9.52113 28.7818L3.79222 23.0529L9.5206 17.3245C9.64458 17.2006 9.74295 17.0535 9.81008 16.8916C9.87721 16.7297 9.91178 16.5562 9.91183 16.3809C9.91188 16.2057 9.8774 16.0321 9.81037 15.8702C9.74333 15.7082 9.64505 15.5611 9.52113 15.4371ZM48.2192 22.1092L41.5471 15.4371C41.4233 15.3131 41.2762 15.2148 41.1143 15.1476C40.9524 15.0805 40.7789 15.046 40.6037 15.046C40.4284 15.046 40.2549 15.0805 40.093 15.1476C39.9311 15.2148 39.7841 15.3131 39.6602 15.4371C39.5362 15.561 39.4379 15.708 39.3708 15.8699C39.3036 16.0318 39.2691 16.2053 39.2691 16.3806C39.2691 16.5558 39.3036 16.7293 39.3708 16.8912C39.4379 17.0531 39.5362 17.2001 39.6602 17.324L45.3886 23.0529L39.6597 28.7813C39.4725 28.9677 39.3449 29.2055 39.2931 29.4646C39.2413 29.7236 39.2676 29.9923 39.3687 30.2363C39.4698 30.4804 39.6412 30.6889 39.861 30.8355C40.0808 30.982 40.3392 31.0599 40.6034 31.0594C40.945 31.0594 41.2861 30.9291 41.5471 30.6687L48.2192 23.9966C48.4694 23.7463 48.6099 23.4068 48.6099 23.0529C48.6099 22.699 48.4694 22.3595 48.2192 22.1092Z" fill="url(#paint0_linear)"/>
<path d="M27.0609 11.805C27.1919 11.1559 27.3605 10.4216 27.4882 9.67984C27.4919 9.65989 27.4951 9.6394 27.5008 9.61981C27.5288 9.52237 27.5473 9.50801 27.6508 9.54527C27.7792 9.5914 27.9093 9.62826 28.0442 9.64684C28.351 9.68837 28.6427 9.64897 28.8986 9.48552C29.0876 9.36492 29.2287 9.19522 29.3563 9.01873C29.5506 8.75046 29.7395 8.47878 29.9288 8.20719C30.2058 7.8098 30.5301 7.45178 30.9375 7.16994C31.2534 6.95182 31.6057 6.80082 31.9975 6.74243C32.2303 6.70755 32.4497 6.77376 32.6624 6.85937C33.0773 7.02628 33.454 7.25806 33.8202 7.50472C34.6686 8.07592 35.4732 8.70284 36.3079 9.2907C37.0249 9.79604 37.7603 10.2736 38.5466 10.6761C39.0921 10.9552 39.6559 11.1979 40.2519 11.3492C40.9444 11.5254 41.6483 11.6265 42.3636 11.5188C42.6791 11.4713 42.996 11.4437 43.3184 11.467C43.4323 11.4746 43.5435 11.5065 43.6436 11.5604C43.7428 11.6131 43.77 11.6752 43.7522 11.7803C43.7366 11.8738 43.688 11.9526 43.6315 12.0276C43.4767 12.2331 43.278 12.3979 43.0567 12.5332C42.6147 12.8039 42.1338 12.9903 41.6055 13.0629C41.2955 13.109 40.9788 13.1098 40.6665 13.0653C40.511 13.042 40.4913 13.0522 40.4917 13.1967C40.492 13.3444 40.4085 13.4225 40.2746 13.4646C40.0759 13.5268 39.8695 13.5205 39.6633 13.5047C39.0968 13.4619 38.569 13.2886 38.0627 13.0455L37.9891 13.0113C37.9272 12.9827 37.8832 12.9981 37.8614 13.0583C37.8458 13.1015 37.8345 13.1464 37.8208 13.1904C37.6791 13.6486 37.3895 13.8212 36.9533 13.8221C36.6454 13.8225 36.367 13.7205 36.0886 13.6133C35.9775 13.5703 35.8707 13.5171 35.7631 13.4662C35.5788 13.3786 35.5794 13.3777 35.4634 13.5271C35.3841 13.6295 35.3043 13.7314 35.2027 13.8163C34.9539 14.0242 34.6638 14.0993 34.3324 14.059C34.0035 14.0187 33.701 13.9041 33.4089 13.7574C33.293 13.6992 33.1771 13.6405 33.0594 13.5858C32.9077 13.5147 32.9073 13.5165 32.8059 13.6365C32.7722 13.6758 32.738 13.7151 32.7012 13.752C32.4408 14.0119 32.1149 14.058 31.7609 13.9742C31.3231 13.8707 30.9533 13.6402 30.607 13.3713C30.5731 13.3449 30.5406 13.3169 30.5062 13.2909C30.3047 13.1364 30.3024 13.135 30.0813 13.2641C29.9622 13.3333 29.8484 13.4102 29.7297 13.48C29.3894 13.6792 29.0245 13.6797 28.6494 13.5671C28.0631 13.3913 27.5283 13.1064 26.991 12.8274C26.9009 12.7806 26.8907 12.7169 26.9071 12.6331C26.9553 12.3878 26.9992 12.1408 27.0609 11.805ZM24.8182 11.7581C24.7818 11.9562 24.7525 12.1018 24.7291 12.2485C24.716 12.331 24.6718 12.3723 24.5831 12.3842C23.9825 12.4628 23.3811 12.5296 22.7705 12.4888C22.3388 12.4598 21.9849 12.2926 21.7339 11.9449C21.6657 11.8508 21.5958 11.7579 21.5236 11.6664C21.3984 11.5087 21.3721 11.4967 21.1812 11.5584C20.9307 11.6395 20.6769 11.7055 20.4152 11.7485C20.1757 11.7918 19.9292 11.7955 19.6867 11.7593C19.2921 11.6945 19.0067 11.4924 18.879 11.116C18.8137 10.9233 18.8116 10.9238 18.5945 10.9424C18.4058 10.9586 18.2174 10.9762 18.0286 10.9899C17.8177 11.0024 17.6054 10.989 17.397 10.95C16.9182 10.8673 16.6202 10.5982 16.4663 10.1705C16.445 10.1119 16.4291 10.0519 16.4116 9.9921C16.3702 9.84928 16.3706 9.84937 16.2099 9.8601C16.075 9.86933 15.9403 9.88486 15.8048 9.88584C15.5175 9.88769 15.2313 9.88684 14.9536 9.78354C14.495 9.6134 14.2946 9.31715 14.3396 8.85648C14.3612 8.63653 14.3598 8.63293 14.1341 8.65665C13.7275 8.69889 13.321 8.67403 12.9181 8.61291C12.6345 8.56988 12.3543 8.4944 12.0996 8.35503C12.0423 8.32476 11.9879 8.28957 11.9373 8.24992C11.8334 8.16465 11.7894 8.06642 11.8427 7.93428C11.8961 7.80123 11.8765 7.78083 11.7252 7.74583C10.9595 7.56909 10.3467 7.16348 9.84211 6.59555C9.64898 6.38282 9.49263 6.1428 9.37906 5.88469C9.32959 5.76915 9.28982 5.6506 9.28837 5.52566C9.28618 5.35216 9.35633 5.28882 9.53686 5.27262C9.71312 5.25756 9.86778 5.32674 10.0253 5.38063C10.2258 5.44915 10.4141 5.54562 10.5982 5.64851C11.0885 5.92324 11.6135 6.09791 12.1694 6.20394C12.9533 6.35381 13.7347 6.34881 14.5181 6.26891C15.3326 6.18608 16.1305 6.02734 16.9167 5.82183C17.7744 5.59784 18.6272 5.35663 19.4853 5.1332C19.9999 4.99908 20.5162 4.86718 21.0511 4.81305C21.2725 4.79046 21.4942 4.78279 21.7162 4.80394C21.9407 4.82555 22.128 4.93333 22.3018 5.06407C22.7658 5.41308 23.0718 5.8654 23.2799 6.38267C23.4572 6.82426 23.5575 7.28334 23.6709 7.74005C23.7232 7.95105 23.7857 8.15913 23.871 8.36182C24.0266 8.73038 24.3289 8.93218 24.7173 9.03332C24.8324 9.06311 24.951 9.07963 25.0717 9.08121C25.2179 9.08315 25.2393 9.10771 25.2337 9.24908C25.2312 9.31527 25.2201 9.38131 25.2085 9.4468L24.9297 11.0052C24.8806 11.2723 24.8761 11.5458 24.8182 11.7581ZM21.6053 13.9341C21.8241 13.9585 22.0532 14.027 22.2829 14.0922C22.4095 14.1285 22.5246 14.1918 22.6225 14.2764C22.957 14.5652 23.2054 14.9077 23.3391 15.3183C23.344 15.3331 23.3483 15.3482 23.3522 15.3629C23.4348 15.6662 23.3773 15.7659 23.0663 15.8497C22.5642 15.9852 22.0597 15.9567 21.5562 15.8282C21.4299 15.7934 21.3117 15.735 21.2088 15.6564C21.0267 15.5232 20.8401 15.3954 20.6607 15.2589C20.3688 15.0369 20.0351 14.9007 19.6809 14.8045C19.308 14.7063 18.9307 14.6252 18.5503 14.5616C18.427 14.5404 18.3018 14.5331 18.1773 14.54C17.7279 14.5629 17.4718 14.9349 17.6215 15.3436C17.6723 15.4824 17.7565 15.6029 17.8595 15.7125C18.1936 16.0702 18.596 16.3475 19.0194 16.5984C19.8559 17.0931 20.7535 17.4552 21.6888 17.7336C22.1466 17.8695 22.6092 17.9848 23.0776 18.0829C23.9599 18.2676 24.838 18.4698 25.6782 18.8036C26.5681 19.157 27.4301 19.5576 28.1924 20.1322C28.6352 20.4658 29.0091 20.8539 29.2468 21.3459C29.4509 21.7685 29.5263 22.2052 29.4064 22.6531C29.3076 23.0214 29.0978 23.3352 28.8269 23.6105C28.4023 24.0412 27.8795 24.3388 27.3179 24.5817C26.7973 24.8068 26.252 24.9669 25.6981 25.1048C25.5935 25.1311 25.5161 25.1174 25.4329 25.0446C25.2064 24.8483 24.9633 24.6702 24.7061 24.512C24.6527 24.4787 24.5837 24.4497 24.5894 24.3745C24.5961 24.2885 24.5984 24.1983 24.6512 24.1241C24.684 24.0788 24.7457 24.0806 24.7984 24.0706C25.1634 24.0001 25.5303 23.9362 25.8894 23.8425C26.24 23.7511 26.5768 23.6265 26.8798 23.4391C27.2363 23.2189 27.5157 22.9332 27.5774 22.5115C27.6288 22.1604 27.5101 21.8399 27.3074 21.5451C27.0398 21.155 26.6722 20.8601 26.2661 20.609C25.8414 20.3416 25.3795 20.1327 24.8946 19.9886C24.7381 19.9431 24.5786 19.9085 24.4208 19.8704C23.8192 19.7248 23.223 19.561 22.6252 19.4036C21.8312 19.1949 21.0499 18.9505 20.3037 18.6096C19.4067 18.2001 18.5728 17.6997 17.8313 17.0642C17.3689 16.668 16.9625 16.2275 16.6717 15.7032C16.5208 15.4309 16.4167 15.1447 16.4162 14.832C16.4161 14.5145 16.5578 14.2721 16.8125 14.0825C16.9834 13.9552 17.1773 13.869 17.3865 13.8106C17.8368 13.6858 18.3008 13.6579 18.7686 13.6648C19.2024 13.6712 19.6343 13.7156 20.0653 13.7709C20.2695 13.7974 20.4764 13.8038 20.682 13.8171C20.9845 13.8377 21.2873 13.8651 21.6053 13.9341Z" fill="url(#paint1_linear)"/>
<path d="M24.3244 16.7662C24.3568 16.59 24.3952 16.4143 24.4207 16.2368C24.5479 15.3597 24.7293 14.4916 24.8623 13.6161C24.9675 12.9219 25.1151 12.2356 25.2132 11.5411C25.3143 10.8256 25.471 10.1198 25.5714 9.40466C25.6619 8.76009 25.8032 8.12437 25.8931 7.48063C25.9599 7.00336 26.0449 6.52991 26.1285 6.05619C26.137 6.01905 26.1351 5.98024 26.1229 5.9436C26.1107 5.90696 26.0887 5.87377 26.059 5.84731C25.7096 5.49825 25.5659 5.08153 25.6102 4.61355C25.6403 4.29925 25.7793 4.00528 26.0056 3.77713C26.3974 3.37014 26.8983 3.20235 27.4697 3.30164C28.4404 3.4705 28.9311 4.34371 28.8165 5.03372C28.7291 5.5614 28.4406 5.93511 27.9544 6.17801C27.9112 6.19716 27.8738 6.22624 27.8457 6.26266C27.8177 6.29908 27.7997 6.3417 27.7934 6.38672C27.6402 7.13965 27.4964 7.8943 27.3399 8.64613C27.187 9.37802 27.066 10.1167 26.902 10.8456C26.7499 11.5206 26.6509 12.2058 26.4971 12.8795C26.3266 13.6239 26.2186 14.3804 26.0498 15.1242C25.8879 15.8391 25.7766 16.5633 25.6226 17.2791C25.5582 17.5794 25.4904 17.8791 25.4305 18.1802C25.4047 18.3093 25.368 18.3318 25.242 18.287C24.9248 18.1746 24.5987 18.0916 24.2766 17.995C24.1338 17.9524 24.1194 17.9368 24.1444 17.7952C24.2045 17.4519 24.2694 17.11 24.3324 16.7672L24.3244 16.7662V16.7662ZM22.583 19.7521C22.5309 19.8111 22.4719 19.8003 22.4221 19.8079C21.9631 19.8803 21.5281 20.0109 21.1587 20.2824C20.7491 20.584 20.5067 20.9729 20.5636 21.4854C20.6058 21.8647 20.7901 22.193 21.0504 22.4849C21.3685 22.8412 21.753 23.1214 22.1605 23.3785C22.9447 23.8727 23.7503 24.3339 24.5429 24.8157C25.1045 25.1534 25.5855 25.5998 25.9532 26.1246C26.2574 26.5593 26.4612 27.0307 26.4615 27.5577C26.4617 28.0824 26.2845 28.5513 25.974 28.9756C25.5655 29.5344 25.021 29.9474 24.4049 30.2848C24.2511 30.3688 24.0908 30.4409 23.9329 30.5169C23.8547 30.5548 23.7952 30.5487 23.7323 30.4815C23.6672 30.412 23.5909 30.351 23.5166 30.2903C23.4476 30.234 23.4191 30.1707 23.4378 30.0855C23.4672 29.9504 23.4937 29.8143 23.5148 29.6777C23.5303 29.5765 23.589 29.5177 23.6829 29.4717C24.0675 29.2878 24.4183 29.0479 24.7228 28.7605C24.9871 28.507 25.1867 28.2186 25.245 27.8515C25.3049 27.4731 25.1816 27.1393 24.9689 26.8269C24.658 26.3703 24.2285 26.0248 23.767 25.7126C23.2539 25.3652 22.6954 25.0879 22.1604 24.7738C21.3528 24.2993 20.5938 23.7647 19.9465 23.0986C19.5503 22.6911 19.2173 22.2443 19.0044 21.7252C18.8577 21.3665 18.7959 20.9969 18.8509 20.6201C18.9 20.2839 19.055 19.9858 19.2793 19.726C19.5339 19.4318 19.8497 19.2056 20.2066 19.0295C20.2838 18.9914 20.3508 19.0033 20.423 19.0343C20.7563 19.1776 21.0974 19.304 21.4431 19.416C21.6956 19.4979 21.9494 19.5757 22.2078 19.64C22.3313 19.6709 22.4514 19.7126 22.583 19.7521V19.7521ZM26.4518 18.7046C26.6268 18.7301 26.8033 18.7467 26.9781 18.7702C27.5593 18.8466 28.1443 18.8885 28.7296 18.8956C29.4951 18.9102 30.2579 18.8406 31.0027 18.6882C31.3831 18.6085 31.7539 18.5012 32.1001 18.3309C32.2204 18.2715 32.3286 18.1979 32.4211 18.1041C32.5572 17.9671 32.6133 17.8033 32.6048 17.6143C32.5959 17.416 32.4978 17.2719 32.318 17.1736C32.1902 17.1028 32.0519 17.0511 31.908 17.0206C31.4245 16.9174 30.9341 16.8492 30.4411 16.8166C30.134 16.799 29.8371 16.8508 29.5461 16.9335C29.3653 16.9847 29.1838 17.0338 29.0027 17.0834C28.8232 17.1325 28.6423 17.1371 28.4561 17.1067C27.9927 17.0311 27.5616 16.8828 27.1827 16.6079C26.9242 16.4204 26.8999 16.3118 27.0806 16.0646C27.3553 15.6888 27.7361 15.4409 28.1874 15.286C28.4242 15.2044 28.6709 15.2488 28.9118 15.2806C29.4899 15.3572 30.0468 15.5214 30.6011 15.6972C30.792 15.7577 30.9893 15.7997 31.1828 15.8511C31.8416 16.0259 32.48 16.2478 33.0566 16.6122C33.2726 16.7488 33.4607 16.9133 33.6101 17.1158C33.8847 17.4875 33.8882 17.8641 33.6566 18.244C33.4956 18.5083 33.2732 18.7191 33.0178 18.9014C32.4539 19.3041 31.8174 19.5726 31.1432 19.7694C30.426 19.9767 29.6851 20.1081 28.9339 20.1611C28.8442 20.1676 28.7661 20.1609 28.6928 20.0976C28.1001 19.5854 27.4188 19.2041 26.7047 18.8705C26.6171 18.8295 26.5309 18.7867 26.4439 18.7449L26.4518 18.7046V18.7046Z" fill="url(#paint2_linear)"/>
<path d="M22.5743 34.4339C22.5942 34.3283 22.6224 34.2246 22.6493 34.1202C22.6605 34.0758 22.6812 34.0342 22.7101 33.9979C22.739 33.9616 22.7755 33.9313 22.8173 33.909C22.9713 33.816 23.116 33.7121 23.2452 33.5877C23.5191 33.324 23.5917 33.0123 23.4919 32.6554C23.4352 32.4611 23.3485 32.2751 23.2347 32.1037C22.927 31.6271 22.5408 31.2118 22.1115 30.8299C21.7604 30.5174 21.376 30.2392 21.0519 29.8991C20.5852 29.41 20.1926 28.8776 19.9407 28.2611C19.7365 27.7609 19.6417 27.2501 19.7413 26.7194C19.8209 26.2948 20.0204 25.9292 20.3198 25.6121C20.6281 25.2857 21.0028 25.0434 21.4164 24.8499C21.4965 24.8124 21.5614 24.8085 21.6422 24.8588C21.8801 25.0062 22.1236 25.1459 22.3656 25.2881C22.4996 25.367 22.4977 25.3801 22.4872 25.5258C22.475 25.6976 22.385 25.7827 22.2168 25.84C21.896 25.9479 21.6024 26.1156 21.3533 26.3334C20.9201 26.714 20.7896 27.183 20.9277 27.7296C20.9931 27.9881 21.1093 28.2281 21.2588 28.4526C21.5284 28.857 21.8397 29.2307 22.1909 29.5757C22.5491 29.9269 22.9313 30.2532 23.3157 30.578C23.7741 30.9653 24.1602 31.406 24.4079 31.943C24.5686 32.2919 24.6343 32.6568 24.5797 33.0289C24.5431 33.2778 24.4408 33.5102 24.3044 33.7263C24.1664 33.9387 23.9977 34.1314 23.8033 34.2993C23.5152 34.5508 23.1935 34.7656 22.8458 34.9384C22.7184 35.0032 22.713 34.994 22.619 34.8852C22.5388 34.7928 22.5117 34.6971 22.5452 34.5839C22.5601 34.5358 22.565 34.4845 22.5743 34.4339V34.4339Z" fill="url(#paint3_linear)"/>
<path d="M21.6481 39.3146C21.615 39.2649 21.6281 39.2241 21.6397 39.186C21.7484 38.8267 21.791 38.4543 21.8634 38.0878C21.9182 37.8117 22.0159 37.5462 22.0517 37.2656C22.136 36.5997 21.9716 36.0018 21.4921 35.486C21.1884 35.1592 20.876 34.8385 20.5812 34.5048C20.203 34.0766 19.8795 33.6144 19.7187 33.0718C19.5464 32.4897 19.6176 31.9422 19.9743 31.4434C20.2584 31.0464 20.6547 30.7726 21.0945 30.5475C21.1546 30.5168 21.2068 30.5178 21.2565 30.5653L21.2689 30.5757C21.6312 30.885 21.5681 30.7578 21.5212 31.1817C21.4896 31.4645 21.3867 31.681 21.1304 31.8382C20.9825 31.9285 20.8709 32.0652 20.7754 32.2083C20.5843 32.4954 20.5532 32.797 20.7052 33.116C20.8301 33.3777 21.0012 33.612 21.1962 33.8296C21.5643 34.2406 21.9542 34.6354 22.3082 35.0568C22.7302 35.5592 22.9551 36.1318 22.91 36.7785C22.8422 37.7562 22.3969 38.5676 21.7226 39.2774C21.7116 39.2886 21.6992 39.2984 21.6856 39.3066C21.6772 39.3108 21.6655 39.3111 21.6481 39.3146V39.3146ZM24.8289 21.2755C24.6243 22.1892 24.4562 23.1096 24.2854 24.03C24.2826 24.0453 24.2804 24.0602 24.2761 24.0753C24.2443 24.1984 24.2137 24.2153 24.0978 24.1485C23.8222 23.9899 23.5515 23.8241 23.2767 23.6638C23.2019 23.6198 23.1682 23.5652 23.1892 23.4837C23.193 23.4691 23.1943 23.4535 23.1971 23.4382C23.3631 22.4551 23.5158 21.4695 23.704 20.49C23.7264 20.3849 23.7413 20.2784 23.7489 20.1712C23.7523 20.1057 23.7846 20.0627 23.8643 20.0831C24.1897 20.1669 24.5197 20.2314 24.8398 20.3334C24.9869 20.3801 24.9901 20.3903 24.9644 20.5356C24.921 20.7828 24.8743 21.0288 24.8289 21.2755V21.2755ZM23.7924 26.5348C23.5889 27.3648 23.4664 28.2169 23.29 29.0576C23.2388 29.3028 23.1817 29.5469 23.131 29.7922C23.1059 29.9151 23.0837 29.9197 22.9799 29.8335C22.7491 29.6419 22.5411 29.4282 22.3269 29.221C22.2435 29.1404 22.2337 29.0552 22.2525 28.9527C22.335 28.51 22.4248 28.0681 22.4903 27.6232C22.583 27.0111 22.6856 26.4007 22.798 25.792C22.8422 25.5489 22.8444 25.5478 23.0733 25.6863C23.2807 25.8117 23.4813 25.9468 23.6825 26.0807C23.8135 26.1681 23.8615 26.267 23.8157 26.4082C23.8033 26.4477 23.8007 26.4894 23.7924 26.5348V26.5348Z" fill="url(#paint4_linear)"/>
<path d="M21.3271 40.684C21.2067 40.6057 21.1329 40.5035 21.05 40.412C20.5189 39.8248 20.1282 39.1661 19.9071 38.4235C19.7641 37.9355 19.7108 37.4297 19.7495 36.9282C19.7713 36.6526 19.8285 36.3811 19.92 36.12C20.0406 35.7624 20.2635 35.4663 20.5418 35.2058C20.578 35.1722 20.6067 35.1185 20.6738 35.1356C20.7224 35.1479 20.8096 35.2632 20.8097 35.3178C20.8098 35.3586 20.8023 35.3994 20.795 35.4393C20.6983 35.9682 20.6128 36.4995 20.5014 37.0252C20.3629 37.6792 20.4424 38.3205 20.623 38.9598C20.7767 39.5049 21.0074 40.0239 21.2758 40.5288C21.2992 40.5729 21.338 40.6136 21.3271 40.684ZM22.4979 33.0284C22.4489 33.2951 22.4027 33.5628 22.3498 33.8288C22.3186 33.9841 22.2787 34.1379 22.2388 34.2912C22.2149 34.3822 22.1796 34.392 22.1089 34.3167C21.909 34.1035 21.7157 33.8848 21.5187 33.6697C21.4598 33.6052 21.4762 33.5354 21.4887 33.4648C21.5506 33.1223 21.6205 32.7808 21.6726 32.4365C21.7284 32.067 21.78 31.6972 21.8495 31.3302C21.8542 31.3052 21.8579 31.2795 21.8634 31.2546C21.8909 31.1302 21.9137 31.1224 22.0125 31.213C22.2288 31.412 22.4319 31.6219 22.6161 31.8485C22.6455 31.8824 22.6663 31.9221 22.6771 31.9645C22.6878 32.0069 22.6881 32.0508 22.678 32.0929C22.6172 32.4044 22.5618 32.717 22.5044 33.0291L22.4979 33.0284V33.0284Z" fill="url(#paint5_linear)"/>
<path d="M21.2207 39.4748C21.1571 39.4555 21.1504 39.423 21.1403 39.3948C20.9476 38.8545 20.7901 38.3082 20.7896 37.7351C20.7895 37.689 20.7889 37.6424 20.7947 37.597C20.8752 36.9875 20.9858 36.383 21.0954 35.7784L21.0982 35.7631C21.1115 35.7267 21.0997 35.6718 21.155 35.6647C21.1972 35.659 21.2157 35.7022 21.2409 35.7285C21.5576 36.0537 21.6905 36.4435 21.7129 36.8725C21.7169 36.9504 21.703 37.0256 21.6887 37.1011L21.3576 38.8685C21.3206 39.0698 21.2485 39.2627 21.2207 39.4748V39.4748ZM20.3748 40.1742C20.4837 40.2547 20.5344 40.3604 20.6144 40.4427C20.7142 40.5449 20.8024 40.6575 20.8971 40.7646C20.9305 40.8019 20.9553 40.8386 20.9408 40.8896C20.866 41.1607 20.7898 41.4315 20.6308 41.6713C20.5795 41.7481 20.5286 41.8452 20.417 41.8324C20.2958 41.8187 20.2952 41.7007 20.2659 41.6162C20.2379 41.5219 20.2242 41.4246 20.2254 41.3273C20.2132 40.9568 20.2647 40.5932 20.3441 40.2333C20.3473 40.2186 20.3578 40.2056 20.3748 40.1742Z" fill="url(#paint6_linear)"/>
<path d="M66.5939 19.5127L59.4597 12.8913C59.4182 12.8602 59.382 12.8447 59.3509 12.8447C59.2887 12.8447 59.2576 12.881 59.2576 12.9535C59.2576 12.9742 59.2576 12.9898 59.2576 13.0001V16.6372C59.2576 16.9584 59.3042 17.2071 59.3975 17.3833C59.4804 17.5594 59.584 17.6941 59.7084 17.7874C59.8327 17.8806 59.9726 17.9428 60.128 17.9739C60.2731 18.0154 60.4078 18.0568 60.5321 18.0982C60.6669 18.1397 60.7757 18.1967 60.8586 18.2692C60.9414 18.3418 60.9829 18.4661 60.9829 18.6423C60.9829 19.0775 60.8845 19.4557 60.6876 19.7769C60.5011 20.0878 60.2524 20.3468 59.9415 20.5541C59.641 20.7509 59.2991 20.9012 58.9157 21.0048C58.5426 21.0981 58.1748 21.1447 57.8121 21.1447C57.3873 21.1447 56.9728 21.0981 56.5687 21.0048C56.1645 20.9012 55.8122 20.7509 55.5117 20.5541C55.2009 20.3468 54.9522 20.0878 54.7657 19.7769C54.5792 19.4557 54.4859 19.0775 54.4859 18.6423C54.4859 18.4661 54.5273 18.3418 54.6102 18.2692C54.6931 18.1967 54.7968 18.1397 54.9211 18.0982C55.0454 18.0568 55.1802 18.0205 55.3252 17.9894C55.4703 17.948 55.605 17.8858 55.7293 17.8029C55.8537 17.7097 55.9573 17.5801 56.0402 17.4144C56.1231 17.2382 56.1645 16.9947 56.1645 16.6838V8.66361C56.1645 8.35275 56.1231 8.10924 56.0402 7.93309C55.9573 7.76729 55.8537 7.63777 55.7293 7.54451C55.605 7.46161 55.4703 7.39944 55.3252 7.35799C55.1802 7.32691 55.0454 7.29064 54.9211 7.24919C54.7968 7.20774 54.6931 7.15075 54.6102 7.07822C54.5273 7.00568 54.4859 6.88652 54.4859 6.72073C54.4859 6.27516 54.574 5.89695 54.7501 5.58609C54.9263 5.26486 55.1698 5.00581 55.4807 4.80893C55.7812 4.60169 56.1438 4.45144 56.5687 4.35818C56.9831 4.26493 57.4339 4.2183 57.9209 4.2183C58.2836 4.2183 58.5996 4.24938 58.869 4.31155C59.1281 4.36336 59.3768 4.4618 59.6151 4.60687C59.8534 4.74158 60.1021 4.9281 60.3612 5.16642C60.6306 5.39439 60.9466 5.67934 61.3093 6.02129L67.4022 11.6945C67.4125 11.7049 67.4333 11.7204 67.4643 11.7411C67.4851 11.7515 67.5162 11.7567 67.5576 11.7567C67.5991 11.7567 67.6353 11.736 67.6664 11.6945C67.7079 11.6634 67.7286 11.5857 67.7286 11.4614V8.72578C67.7286 8.3942 67.6871 8.14033 67.6042 7.96417C67.5213 7.78802 67.4125 7.65331 67.2778 7.56005C67.1535 7.46679 67.0188 7.40462 66.8737 7.37354C66.7183 7.33209 66.5784 7.29064 66.4541 7.24919C66.3297 7.20774 66.2261 7.15075 66.1432 7.07822C66.0499 7.00568 66.0033 6.88652 66.0033 6.72073C66.0033 6.27516 66.1017 5.89695 66.2986 5.58609C66.4955 5.26486 66.7442 5.00581 67.0447 4.80893C67.3555 4.60169 67.6975 4.45144 68.0705 4.35818C68.4539 4.26493 68.827 4.2183 69.1896 4.2183C69.6145 4.2183 70.0238 4.26493 70.4175 4.35818C70.8216 4.45144 71.1791 4.60169 71.49 4.80893C71.8009 5.00581 72.0496 5.26486 72.2361 5.58609C72.4226 5.89695 72.5158 6.27516 72.5158 6.72073C72.5158 6.88652 72.4744 7.00568 72.3915 7.07822C72.3086 7.15075 72.205 7.20774 72.0806 7.24919C71.9563 7.29064 71.8216 7.32691 71.6765 7.35799C71.5314 7.39944 71.3967 7.46161 71.2724 7.54451C71.1481 7.63777 71.0444 7.76729 70.9615 7.93309C70.8786 8.10924 70.8372 8.35275 70.8372 8.66361V18.8599C70.8372 19.3261 70.8009 19.7095 70.7284 20.01C70.6455 20.3002 70.5315 20.5281 70.3864 20.6939C70.2414 20.8701 70.0704 20.9893 69.8735 21.0514C69.6663 21.1136 69.4435 21.1447 69.2052 21.1447C69.0394 21.1447 68.8632 21.1084 68.6767 21.0359C68.4902 20.9634 68.2933 20.8597 68.0861 20.725C67.8892 20.5903 67.6664 20.4193 67.4177 20.2121C67.169 20.0049 66.8944 19.7717 66.5939 19.5127ZM81.1733 9.78271C80.9454 9.78271 80.7329 9.83452 80.5361 9.93814C80.3392 10.0418 80.1682 10.1972 80.0231 10.4044C79.8781 10.622 79.7641 10.8966 79.6812 11.2282C79.5983 11.5494 79.5568 11.938 79.5568 12.3939H82.9452C82.9452 11.8966 82.909 11.4821 82.8364 11.1505C82.7535 10.8086 82.6396 10.5391 82.4945 10.3423C82.3391 10.135 82.1525 9.98995 81.9349 9.90706C81.707 9.82416 81.4531 9.78271 81.1733 9.78271ZM80.3806 7.06268C81.3339 7.06268 82.1888 7.20256 82.9452 7.48234C83.712 7.77247 84.3648 8.16623 84.9037 8.66361C85.4321 9.15063 85.8414 9.7309 86.1316 10.4044C86.4217 11.078 86.5668 11.7981 86.5668 12.5649C86.5668 12.8861 86.5201 13.1348 86.4269 13.311C86.3336 13.4871 86.2093 13.6167 86.0538 13.6996C85.8881 13.7928 85.686 13.8498 85.4477 13.8705C85.2093 13.8913 84.9347 13.9016 84.6239 13.9016H79.5102C79.5102 14.6788 79.5931 15.3109 79.7589 15.7979C79.9143 16.2745 80.1319 16.6476 80.4117 16.917C80.7019 17.1864 81.0438 17.3729 81.4376 17.4765C81.8313 17.5698 82.2717 17.6164 82.7587 17.6164C83.0074 17.6164 83.2716 17.5905 83.5514 17.5387C83.8208 17.4869 84.0799 17.4247 84.3286 17.3522C84.5876 17.2693 84.8208 17.1864 85.028 17.1035C85.2456 17.0206 85.4218 16.9377 85.5565 16.8548C85.6704 16.7926 85.7792 16.7615 85.8829 16.7615C86.0487 16.7615 86.1782 16.8341 86.2714 16.9791C86.3647 17.1139 86.4113 17.2641 86.4113 17.4299C86.4113 17.4921 86.4062 17.5491 86.3958 17.6009C86.3958 17.6423 86.3854 17.6889 86.3647 17.7408C86.1575 18.2692 85.8777 18.7562 85.5254 19.2018C85.1627 19.6474 84.7275 20.0359 84.2198 20.3675C83.7224 20.6888 83.1369 20.9426 82.4634 21.1291C81.8002 21.3157 81.0542 21.4089 80.2252 21.4089C79.4377 21.4089 78.7123 21.3157 78.0492 21.1291C77.3964 20.9426 76.8057 20.6784 76.2773 20.3364C75.7488 20.0049 75.2877 19.6111 74.8939 19.1552C74.5002 18.6992 74.1686 18.207 73.8992 17.6786C73.6401 17.1398 73.4432 16.5802 73.3085 15.9999C73.1842 15.4093 73.122 14.8187 73.122 14.228C73.122 13.627 73.1894 13.0312 73.3241 12.4406C73.4588 11.8499 73.6608 11.2852 73.9303 10.7464C74.1997 10.2179 74.5364 9.7309 74.9406 9.28533C75.3447 8.8294 75.8162 8.43565 76.355 8.10406C76.8938 7.78284 77.4948 7.52897 78.158 7.34245C78.8315 7.15593 79.5724 7.06268 80.3806 7.06268ZM95.5196 11.4147L95.504 17.0569C95.504 17.347 95.5455 17.5698 95.6284 17.7252C95.7009 17.891 95.7942 18.0154 95.9081 18.0982C96.0325 18.1811 96.162 18.2381 96.2967 18.2692C96.4314 18.3003 96.5558 18.3314 96.6698 18.3625C96.7837 18.4039 96.8822 18.4557 96.9651 18.5179C97.0376 18.5904 97.0739 18.7044 97.0739 18.8599C97.0739 19.6681 96.6594 20.2484 95.8304 20.6007C94.9911 20.9633 93.7839 21.1447 92.2089 21.1447C91.4421 21.1447 90.7634 21.1032 90.1728 21.0203C89.5821 20.9271 89.0847 20.7872 88.6806 20.6007C88.2765 20.4142 87.9708 20.181 87.7636 19.9012C87.5563 19.6111 87.4527 19.264 87.4527 18.8599C87.4527 18.7044 87.489 18.5904 87.5615 18.5179C87.6444 18.4557 87.7429 18.4039 87.8568 18.3625C87.9708 18.3314 88.0952 18.3003 88.2299 18.2692C88.3646 18.2485 88.4889 18.1967 88.6029 18.1138C88.7169 18.0309 88.8101 17.9117 88.8827 17.7563C88.9656 17.6009 89.007 17.3781 89.007 17.0879V11.4147C89.007 11.135 88.9656 10.9174 88.8827 10.7619C88.8101 10.6065 88.7169 10.4873 88.6029 10.4044C88.4889 10.3215 88.3646 10.2645 88.2299 10.2335C88.0952 10.2127 87.9708 10.1816 87.8568 10.1402C87.7429 10.1091 87.6444 10.0573 87.5615 9.98477C87.489 9.9226 87.4527 9.8138 87.4527 9.65837C87.4527 9.25425 87.5563 8.90712 87.7636 8.61698C87.9708 8.33721 88.2765 8.09888 88.6806 7.902C89.0847 7.71548 89.5821 7.58078 90.1728 7.49788C90.7634 7.41498 91.4421 7.37354 92.2089 7.37354C92.9031 7.37354 93.4523 7.43053 93.8565 7.54451C94.2709 7.65849 94.5922 7.78802 94.8201 7.93309C95.0792 8.10924 95.2605 8.29576 95.3641 8.49264C95.7268 8.23359 96.162 8.00044 96.6698 7.7932C97.1153 7.60668 97.6541 7.43571 98.2862 7.28028C98.9183 7.13521 99.6592 7.06268 100.509 7.06268C101.286 7.06268 101.96 7.16111 102.529 7.35799C103.089 7.55487 103.566 7.81392 103.959 8.13515C104.353 8.46673 104.669 8.85013 104.908 9.28533C105.146 9.72054 105.332 10.1765 105.467 10.6531C105.602 11.1298 105.69 11.6116 105.731 12.0986C105.783 12.5856 105.809 13.0468 105.809 13.482V16.9947C105.809 17.2952 105.845 17.5283 105.918 17.6941C106.001 17.8599 106.099 17.9894 106.213 18.0827C106.338 18.1656 106.467 18.2226 106.602 18.2537C106.736 18.2848 106.866 18.321 106.99 18.3625C107.115 18.4039 107.213 18.4557 107.286 18.5179C107.369 18.5904 107.41 18.7044 107.41 18.8599C107.41 19.6681 106.99 20.2484 106.151 20.6007C105.322 20.9633 104.12 21.1447 102.545 21.1447C101.778 21.1447 101.1 21.1032 100.509 21.0203C99.9182 20.9271 99.4209 20.7872 99.0168 20.6007C98.6126 20.4142 98.307 20.181 98.0997 19.9012C97.8925 19.6111 97.7889 19.264 97.7889 18.8599C97.7889 18.7044 97.8303 18.5904 97.9132 18.5179C97.9857 18.4557 98.0842 18.4039 98.2085 18.3625C98.3225 18.3314 98.4468 18.3003 98.5815 18.2692C98.7163 18.2485 98.8458 18.1967 98.9701 18.1138C99.0945 18.0309 99.1929 17.9117 99.2654 17.7563C99.3483 17.6009 99.3898 17.3781 99.3898 17.0879V12.5494C99.3898 12.1142 99.3535 11.7256 99.281 11.3836C99.2188 11.0417 99.1048 10.7516 98.939 10.5132C98.7836 10.2749 98.5764 10.0936 98.3173 9.96923C98.0479 9.84488 97.7215 9.78271 97.3381 9.78271C97.0894 9.78271 96.8563 9.82416 96.6387 9.90706C96.4107 9.98995 96.219 10.1039 96.0636 10.249C95.8978 10.3941 95.7683 10.565 95.675 10.7619C95.5714 10.9692 95.5196 11.1868 95.5196 11.4147ZM109.835 3.72092C109.835 3.36861 109.897 3.05775 110.021 2.78833C110.146 2.51892 110.306 2.28578 110.503 2.0889C110.7 1.90238 110.923 1.74177 111.171 1.60706C111.42 1.47236 111.674 1.36874 111.933 1.2962C112.192 1.21331 112.436 1.15631 112.664 1.12523C112.902 1.09414 113.109 1.0786 113.285 1.0786C113.482 1.0786 113.7 1.09414 113.938 1.12523C114.187 1.15631 114.441 1.21331 114.7 1.2962C114.948 1.36874 115.197 1.47236 115.446 1.60706C115.694 1.74177 115.917 1.90238 116.114 2.0889C116.311 2.28578 116.466 2.51892 116.58 2.78833C116.694 3.05775 116.751 3.36861 116.751 3.72092C116.751 4.06286 116.694 4.36855 116.58 4.63796C116.466 4.90737 116.311 5.14052 116.114 5.3374C115.917 5.52391 115.694 5.68452 115.446 5.81923C115.197 5.94358 114.948 6.0472 114.7 6.13009C114.441 6.20263 114.187 6.25962 113.938 6.30107C113.7 6.33215 113.482 6.3477 113.285 6.3477C113.109 6.3477 112.902 6.33215 112.664 6.30107C112.436 6.25962 112.192 6.20263 111.933 6.13009C111.674 6.0472 111.42 5.94358 111.171 5.81923C110.923 5.68452 110.7 5.52391 110.503 5.3374C110.306 5.14052 110.146 4.91255 110.021 4.6535C109.897 4.38409 109.835 4.07323 109.835 3.72092ZM116.425 9.84488V17.0879C116.425 17.3781 116.466 17.6009 116.549 17.7563C116.622 17.9117 116.715 18.0309 116.829 18.1138C116.953 18.1967 117.083 18.2485 117.218 18.2692C117.352 18.3003 117.477 18.3314 117.591 18.3625C117.705 18.4039 117.803 18.4557 117.886 18.5179C117.959 18.5904 117.995 18.7044 117.995 18.8599C117.995 19.6681 117.58 20.2484 116.751 20.6007C115.912 20.9633 114.705 21.1447 113.13 21.1447C112.363 21.1447 111.684 21.1032 111.094 21.0203C110.503 20.9271 110.006 20.7872 109.602 20.6007C109.197 20.4142 108.892 20.181 108.685 19.9012C108.477 19.6111 108.374 19.264 108.374 18.8599C108.374 18.7044 108.41 18.5904 108.482 18.5179C108.565 18.4557 108.664 18.4039 108.778 18.3625C108.892 18.3314 109.016 18.3003 109.151 18.2692C109.286 18.2485 109.41 18.1967 109.524 18.1138C109.638 18.0309 109.731 17.9117 109.804 17.7563C109.887 17.6009 109.928 17.3781 109.928 17.0879V11.4147C109.928 11.135 109.887 10.9174 109.804 10.7619C109.731 10.6065 109.638 10.4873 109.524 10.4044C109.41 10.3215 109.286 10.2645 109.151 10.2335C109.016 10.2127 108.892 10.1816 108.778 10.1402C108.664 10.1091 108.565 10.0573 108.482 9.98477C108.41 9.9226 108.374 9.8138 108.374 9.65837C108.374 9.25425 108.477 8.90712 108.685 8.61698C108.892 8.33721 109.197 8.09888 109.602 7.902C110.006 7.71548 110.503 7.58078 111.094 7.49788C111.684 7.41498 112.363 7.37354 113.13 7.37354C113.886 7.37354 114.487 7.4098 114.933 7.48234C115.368 7.56523 115.7 7.69994 115.928 7.88646C116.145 8.07297 116.285 8.32684 116.347 8.64807C116.399 8.96929 116.425 9.36823 116.425 9.84488ZM133.196 12.1763C133.196 12.5494 133.154 12.912 133.072 13.2644C132.989 13.6167 132.859 13.9327 132.683 14.2125C132.507 14.4819 132.279 14.6995 131.999 14.8653C131.73 15.0311 131.398 15.114 131.004 15.114C130.776 15.114 130.585 15.0674 130.429 14.9741C130.274 14.8808 130.134 14.7461 130.01 14.57C129.896 14.3938 129.782 14.1866 129.668 13.9482C129.554 13.7099 129.424 13.4457 129.279 13.1556L128.44 13.0468V18.9687L132.061 18.7977L132.497 16.9481C132.621 16.5439 132.766 16.202 132.932 15.9222C133.108 15.6424 133.294 15.4145 133.491 15.2383C133.698 15.0622 133.916 14.9378 134.144 14.8653C134.372 14.7824 134.595 14.7409 134.812 14.7409C135.082 14.7409 135.331 14.7876 135.558 14.8808C135.776 14.9637 135.973 15.0933 136.149 15.2694C136.315 15.4352 136.439 15.6373 136.522 15.8756C136.615 16.1139 136.662 16.3833 136.662 16.6838C136.662 16.974 136.636 17.2848 136.584 17.6164C136.522 17.9584 136.429 18.2899 136.305 18.6112C136.191 18.9428 136.045 19.264 135.869 19.5748C135.693 19.8753 135.486 20.1447 135.248 20.3831C135.009 20.611 134.735 20.7976 134.424 20.9426C134.123 21.0773 133.797 21.1447 133.445 21.1447H124.197C123.357 21.1447 122.616 21.0981 121.974 21.0048C121.321 20.9012 120.772 20.7509 120.326 20.5541C119.891 20.3468 119.554 20.0878 119.316 19.7769C119.088 19.4557 118.974 19.0775 118.974 18.6423C118.974 18.4661 119.015 18.3418 119.098 18.2692C119.192 18.1967 119.3 18.1397 119.425 18.0982C119.539 18.0568 119.673 18.0205 119.829 17.9894C119.974 17.948 120.104 17.8858 120.217 17.8029C120.342 17.7097 120.451 17.5801 120.544 17.4144C120.627 17.2382 120.668 16.9947 120.668 16.6838V8.66361C120.668 8.35275 120.627 8.10924 120.544 7.93309C120.451 7.76729 120.342 7.63777 120.217 7.54451C120.104 7.46161 119.974 7.39944 119.829 7.35799C119.673 7.32691 119.539 7.29064 119.425 7.24919C119.3 7.20774 119.192 7.15075 119.098 7.07822C119.015 7.00568 118.974 6.88652 118.974 6.72073C118.974 6.27516 119.088 5.89695 119.316 5.58609C119.554 5.26486 119.891 5.00581 120.326 4.80893C120.772 4.60169 121.321 4.45144 121.974 4.35818C122.616 4.26493 123.357 4.2183 124.197 4.2183H133.305C133.823 4.2183 134.274 4.35818 134.657 4.63796C135.04 4.9281 135.356 5.28559 135.605 5.71043C135.864 6.13527 136.056 6.59638 136.18 7.09376C136.305 7.59114 136.367 8.05225 136.367 8.47709C136.367 8.75687 136.32 9.01074 136.227 9.2387C136.134 9.46667 136.009 9.65837 135.854 9.8138C135.698 9.96923 135.512 10.0884 135.294 10.1713C135.077 10.2645 134.844 10.3112 134.595 10.3112C134.377 10.3112 134.16 10.2697 133.942 10.1868C133.735 10.1143 133.533 9.99513 133.336 9.82934C133.149 9.66355 132.973 9.44594 132.807 9.17653C132.642 8.91748 132.507 8.59626 132.403 8.21286L131.984 6.44095H128.44V11.3215L129.279 11.2127C129.424 10.9329 129.554 10.6738 129.668 10.4355C129.782 10.1972 129.896 9.98995 130.01 9.8138C130.134 9.63764 130.274 9.50294 130.429 9.40968C130.585 9.31642 130.776 9.26979 131.004 9.26979C131.398 9.26979 131.73 9.35269 131.999 9.51848C132.279 9.68427 132.507 9.90187 132.683 10.1713C132.859 10.4407 132.989 10.7464 133.072 11.0883C133.154 11.4406 133.196 11.8033 133.196 12.1763ZM153.822 8.36829C153.936 8.29576 154.091 8.18696 154.288 8.04189C154.485 7.89682 154.775 7.75175 155.158 7.60668C155.542 7.46161 156.049 7.33209 156.681 7.21811C157.303 7.11449 158.111 7.06268 159.106 7.06268C159.852 7.06268 160.5 7.15075 161.049 7.32691C161.609 7.50306 162.08 7.74657 162.464 8.05743C162.857 8.35793 163.184 8.71542 163.443 9.1299C163.702 9.54438 163.904 9.98995 164.049 10.4666C164.194 10.9433 164.298 11.4406 164.36 11.9587C164.412 12.4768 164.437 12.9898 164.437 13.4975V13.6063C164.437 14.456 164.432 15.1088 164.422 15.5647C164.422 16.0207 164.422 16.3522 164.422 16.5595C164.422 16.7771 164.422 16.9014 164.422 16.9325C164.422 16.974 164.422 16.9947 164.422 16.9947C164.422 17.2952 164.458 17.5283 164.531 17.6941C164.614 17.8599 164.712 17.9894 164.826 18.0827C164.94 18.1656 165.07 18.2226 165.215 18.2537C165.349 18.2848 165.474 18.321 165.588 18.3625C165.712 18.4039 165.81 18.4557 165.883 18.5179C165.966 18.5904 166.007 18.7044 166.007 18.8599C166.007 19.264 165.904 19.6111 165.696 19.9012C165.5 20.181 165.204 20.4142 164.811 20.6007C164.427 20.7872 163.95 20.9271 163.381 21.0203C162.811 21.1032 162.153 21.1447 161.407 21.1447C160.692 21.1447 160.06 21.1032 159.51 21.0203C158.951 20.9271 158.479 20.7872 158.096 20.6007C157.713 20.4142 157.422 20.181 157.225 19.9012C157.029 19.6111 156.93 19.264 156.93 18.8599C156.93 18.7044 156.956 18.5904 157.008 18.5179C157.06 18.4557 157.127 18.4039 157.21 18.3625C157.282 18.3314 157.365 18.3003 157.459 18.2692C157.552 18.2485 157.64 18.1967 157.723 18.1138C157.795 18.0309 157.858 17.9117 157.909 17.7563C157.961 17.6009 157.987 17.3781 157.987 17.0879V12.5183C157.987 12.0934 157.961 11.71 157.909 11.3681C157.858 11.0262 157.77 10.7412 157.645 10.5132C157.531 10.2749 157.371 10.0936 157.163 9.96923C156.966 9.84488 156.713 9.78271 156.402 9.78271C155.935 9.78271 155.599 9.92778 155.391 10.2179C155.184 10.5184 155.081 10.9018 155.081 11.3681V16.9636C155.081 17.2745 155.106 17.5128 155.158 17.6786C155.22 17.8444 155.293 17.9739 155.376 18.0672C155.469 18.1501 155.568 18.2122 155.671 18.2537C155.775 18.2848 155.868 18.321 155.951 18.3625C156.044 18.4039 156.117 18.4557 156.169 18.5179C156.231 18.5904 156.262 18.7044 156.262 18.8599C156.262 19.264 156.184 19.6111 156.029 19.9012C155.863 20.181 155.614 20.4142 155.283 20.6007C154.941 20.7872 154.505 20.9271 153.977 21.0203C153.449 21.1032 152.816 21.1447 152.081 21.1447C151.366 21.1447 150.729 21.1032 150.169 21.0203C149.609 20.9271 149.138 20.7872 148.755 20.6007C148.371 20.4142 148.081 20.181 147.884 19.9012C147.687 19.6111 147.589 19.264 147.589 18.8599C147.589 18.7044 147.615 18.5904 147.667 18.5179C147.718 18.4557 147.786 18.4039 147.869 18.3625C147.941 18.3314 148.029 18.3003 148.133 18.2692C148.226 18.2485 148.309 18.1967 148.382 18.1138C148.464 18.0309 148.532 17.9117 148.584 17.7563C148.635 17.6009 148.661 17.3781 148.661 17.0879V12.5183C148.661 11.6582 148.558 10.9899 148.35 10.5132C148.143 10.0366 147.77 9.79825 147.231 9.79825C147.014 9.79825 146.812 9.8397 146.625 9.9226C146.428 9.99513 146.257 10.1039 146.112 10.249C145.967 10.4044 145.853 10.5806 145.77 10.7775C145.677 10.9743 145.63 11.1868 145.63 11.4147V17.0569C145.63 17.347 145.661 17.5698 145.724 17.7252C145.786 17.891 145.864 18.0154 145.957 18.0982C146.05 18.1811 146.148 18.2381 146.252 18.2692C146.366 18.3003 146.47 18.3314 146.563 18.3625C146.656 18.4039 146.729 18.4557 146.781 18.5179C146.843 18.5904 146.874 18.7044 146.874 18.8599C146.874 19.6681 146.475 20.2484 145.677 20.6007C144.869 20.9633 143.713 21.1447 142.211 21.1447C141.475 21.1447 140.822 21.1032 140.252 21.0203C139.672 20.9271 139.185 20.7872 138.791 20.6007C138.398 20.4142 138.097 20.181 137.89 19.9012C137.683 19.6111 137.579 19.264 137.579 18.8599C137.579 18.7044 137.621 18.5904 137.703 18.5179C137.776 18.4557 137.869 18.4039 137.983 18.3625C138.097 18.3314 138.222 18.3003 138.356 18.2692C138.491 18.2485 138.615 18.1967 138.729 18.1138C138.843 18.0309 138.937 17.9117 139.009 17.7563C139.092 17.6009 139.133 17.3781 139.133 17.0879V11.4147C139.133 11.135 139.092 10.9174 139.009 10.7619C138.937 10.6065 138.843 10.4873 138.729 10.4044C138.615 10.3215 138.491 10.2645 138.356 10.2335C138.222 10.2127 138.097 10.1816 137.983 10.1402C137.869 10.1091 137.776 10.0573 137.703 9.98477C137.621 9.9226 137.579 9.8138 137.579 9.65837C137.579 9.25425 137.683 8.90712 137.89 8.61698C138.097 8.33721 138.398 8.09888 138.791 7.902C139.185 7.71548 139.662 7.58078 140.221 7.49788C140.791 7.41498 141.434 7.37354 142.149 7.37354C142.48 7.37354 142.776 7.38908 143.035 7.42017C143.294 7.45125 143.527 7.4927 143.734 7.54451C143.931 7.59632 144.102 7.65849 144.247 7.73103C144.402 7.7932 144.532 7.86055 144.636 7.93309C144.884 8.10924 145.06 8.29576 145.164 8.49264C145.506 8.23359 145.921 8.00044 146.408 7.7932C146.832 7.60668 147.345 7.43571 147.946 7.28028C148.547 7.13521 149.252 7.06268 150.06 7.06268C150.889 7.06268 151.63 7.18184 152.283 7.42017C152.925 7.65849 153.438 7.97454 153.822 8.36829ZM174.945 9.84488C174.945 9.67909 174.794 9.52884 174.494 9.39413C174.193 9.25943 173.737 9.19207 173.126 9.19207C172.815 9.19207 172.566 9.2128 172.38 9.25425C172.183 9.28533 172.028 9.33196 171.914 9.39413C171.8 9.46667 171.722 9.54956 171.681 9.64282C171.639 9.72572 171.618 9.82934 171.618 9.95368C171.618 10.192 171.732 10.3941 171.96 10.5599C172.188 10.736 172.489 10.907 172.862 11.0728C173.235 11.2386 173.66 11.3992 174.136 11.5546C174.613 11.7204 175.095 11.9069 175.582 12.1142C176.079 12.3214 176.566 12.5649 177.043 12.8447C177.52 13.1141 177.944 13.4353 178.317 13.8084C178.69 14.1814 178.986 14.6166 179.203 15.114C179.431 15.601 179.545 16.1709 179.545 16.8237C179.545 17.632 179.364 18.321 179.001 18.8909C178.639 19.4712 178.162 19.9479 177.571 20.3209C176.97 20.6939 176.292 20.9685 175.535 21.1447C174.768 21.3208 173.991 21.4089 173.204 21.4089C172.396 21.4089 171.608 21.326 170.841 21.1602C170.074 20.9944 169.391 20.7613 168.79 20.4608C168.189 20.1603 167.702 19.8028 167.328 19.3883C166.966 18.9738 166.784 18.5127 166.784 18.005C166.784 17.7045 166.831 17.4454 166.924 17.2278C167.007 16.9999 167.126 16.8134 167.282 16.6683C167.437 16.5232 167.613 16.4196 167.81 16.3574C168.007 16.2849 168.214 16.2486 168.432 16.2486C168.764 16.2486 169.043 16.2849 169.271 16.3574C169.489 16.4403 169.665 16.5439 169.8 16.6683C169.935 16.7926 170.049 16.9325 170.142 17.0879C170.225 17.2434 170.302 17.4092 170.375 17.5853C170.458 17.7511 170.546 17.9169 170.639 18.0827C170.732 18.2381 170.857 18.378 171.012 18.5024C171.168 18.6267 171.364 18.7251 171.603 18.7977C171.852 18.8806 172.162 18.922 172.535 18.922C173.136 18.922 173.582 18.8702 173.872 18.7666C174.162 18.6526 174.307 18.4402 174.307 18.1293C174.307 18.0153 174.199 17.9065 173.981 17.8029C173.774 17.6889 173.499 17.575 173.157 17.461C172.826 17.3366 172.437 17.2019 171.991 17.0569C171.556 16.9014 171.111 16.7253 170.655 16.5284C170.199 16.3212 169.753 16.088 169.318 15.829C168.883 15.5595 168.494 15.2487 168.152 14.8964C167.81 14.5441 167.536 14.1451 167.328 13.6996C167.121 13.2436 167.018 12.7307 167.018 12.1608C167.018 11.5287 167.095 10.9588 167.251 10.4511C167.406 9.95368 167.624 9.51848 167.904 9.14545C168.183 8.76205 168.515 8.44083 168.898 8.18177C169.292 7.92272 169.717 7.70512 170.173 7.52897C170.639 7.36318 171.131 7.24401 171.649 7.17148C172.168 7.09894 172.696 7.06268 173.235 7.06268C174.178 7.06268 174.986 7.15075 175.66 7.32691C176.333 7.50306 176.887 7.73103 177.323 8.0108C177.758 8.29058 178.079 8.60144 178.286 8.94339C178.494 9.28533 178.597 9.6221 178.597 9.95368C178.597 10.192 178.551 10.4148 178.457 10.622C178.354 10.8293 178.214 11.0106 178.038 11.166C177.851 11.3215 177.628 11.4458 177.369 11.5391C177.1 11.6323 176.794 11.679 176.452 11.679C176.069 11.679 175.758 11.6582 175.52 11.6168C175.271 11.5753 175.074 11.5132 174.929 11.4303C174.784 11.3577 174.686 11.2697 174.634 11.166C174.572 11.0624 174.54 10.9484 174.54 10.8241C174.54 10.6998 174.561 10.6065 174.603 10.5443C174.654 10.4718 174.701 10.4096 174.743 10.3578C174.784 10.2956 174.831 10.2283 174.882 10.1557C174.924 10.0832 174.945 9.97959 174.945 9.84488ZM191.933 17.119L191.949 11.4614C191.949 11.1712 191.912 10.9433 191.84 10.7775C191.757 10.622 191.659 10.5029 191.545 10.42C191.42 10.3371 191.296 10.2801 191.172 10.249C191.037 10.2179 190.907 10.1816 190.783 10.1402C190.669 10.1091 190.571 10.0573 190.488 9.98477C190.415 9.9226 190.379 9.8138 190.379 9.65837C190.379 8.85013 190.798 8.26467 191.638 7.902C192.467 7.54969 193.674 7.37354 195.259 7.37354C195.788 7.37354 196.233 7.42017 196.596 7.51342C196.959 7.61704 197.259 7.75693 197.498 7.93309C197.726 8.10924 197.907 8.32166 198.042 8.57035C198.176 8.81904 198.275 9.09364 198.337 9.39413C198.389 9.69463 198.42 10.0159 198.43 10.3578C198.441 10.6998 198.446 11.0521 198.446 11.4147V17.119C198.446 17.3988 198.487 17.6164 198.57 17.7718C198.643 17.9273 198.736 18.0464 198.85 18.1293C198.964 18.2122 199.088 18.2692 199.223 18.3003C199.358 18.321 199.482 18.3521 199.596 18.3936C199.71 18.4246 199.803 18.4765 199.876 18.549C199.959 18.6112 200 18.72 200 18.8754C200 19.6836 199.591 20.2691 198.772 20.6318C197.953 20.9841 196.783 21.1602 195.259 21.1602C194.876 21.1602 194.539 21.1343 194.249 21.0825C193.959 21.0203 193.71 20.9426 193.503 20.8494C193.285 20.7561 193.099 20.6525 192.943 20.5385C192.788 20.4245 192.653 20.3054 192.539 20.181C192.291 19.8909 192.135 19.5593 192.073 19.1863C191.71 19.6007 191.275 19.9738 190.767 20.3054C190.56 20.4504 190.322 20.5851 190.052 20.7095C189.783 20.8442 189.488 20.9634 189.166 21.067C188.845 21.1706 188.498 21.2535 188.125 21.3157C187.752 21.3778 187.358 21.4089 186.944 21.4089C186.167 21.4089 185.493 21.3105 184.923 21.1136C184.364 20.9167 183.887 20.6577 183.493 20.3364C183.1 20.0049 182.778 19.6266 182.53 19.2018C182.291 18.7666 182.105 18.3107 181.97 17.834C181.835 17.3574 181.747 16.8807 181.706 16.4041C181.654 15.917 181.628 15.4507 181.628 15.0052V11.5235C181.628 11.223 181.592 10.9899 181.519 10.8241C181.436 10.6583 181.338 10.5288 181.224 10.4355C181.1 10.3526 180.97 10.2905 180.835 10.249C180.701 10.2179 180.571 10.1868 180.447 10.1557C180.333 10.1143 180.234 10.0573 180.152 9.98477C180.079 9.9226 180.043 9.8138 180.043 9.65837C180.043 8.85013 180.457 8.26467 181.286 7.902C182.125 7.54969 183.338 7.37354 184.923 7.37354C185.617 7.37354 186.177 7.45643 186.602 7.62223C187.016 7.79838 187.332 8.03153 187.55 8.32166C187.768 8.6118 187.907 8.95893 187.97 9.36305C188.042 9.76717 188.078 10.2024 188.078 10.6687V15.9222C188.078 16.3678 188.11 16.7615 188.172 17.1035C188.244 17.4454 188.358 17.7356 188.514 17.9739C188.669 18.2122 188.882 18.3936 189.151 18.5179C189.41 18.6423 189.736 18.7044 190.13 18.7044C190.368 18.7044 190.602 18.6682 190.83 18.5956C191.047 18.5127 191.239 18.4039 191.405 18.2692C191.56 18.1242 191.684 17.9532 191.778 17.7563C191.881 17.5594 191.933 17.347 191.933 17.119Z" fill="white"/>
<path d="M55.7721 33.502H54.4859V33.272H54.5455C54.7102 33.272 54.8096 33.2578 54.8436 33.2294C54.8777 33.2038 54.8976 33.1243 54.9033 32.9909L54.9586 30.0821C54.9586 30.0735 54.9586 30.0593 54.9586 30.0395C54.9615 30.0196 54.9629 30.004 54.9629 29.9926V29.9245C54.9629 29.8535 54.953 29.8109 54.9331 29.7967C54.9047 29.7768 54.8578 29.7669 54.7925 29.7669H54.4902L54.4859 29.5284H55.3845L56.7431 32.7098L58.0804 29.5284H59.0344V29.7669H58.8342C58.7036 29.7669 58.6213 29.7768 58.5872 29.7967C58.5418 29.8194 58.5191 29.872 58.5191 29.9543V32.9952C58.5191 33.1258 58.5361 33.2038 58.5702 33.2294C58.6014 33.2578 58.7065 33.272 58.8853 33.272H59.0046L59.0089 33.502H57.5651L57.5523 33.272H57.6716C57.8476 33.272 57.9526 33.2578 57.9867 33.2294C58.0208 33.1982 58.0378 33.1243 58.0378 33.0079V30.2737L57.1222 32.4372L56.7559 33.3359C56.7161 33.4352 56.6906 33.4949 56.6792 33.5147C56.6679 33.5346 56.6523 33.5446 56.6324 33.5446C56.604 33.5446 56.5259 33.404 56.3981 33.1229L55.2014 30.3504L55.1758 33.0676C55.1758 33.1669 55.2042 33.2251 55.261 33.2422C55.3292 33.262 55.4995 33.272 55.7721 33.272V33.502ZM62.3052 33.502L62.301 33.272H62.3734C62.4841 33.272 62.5579 33.2521 62.5949 33.2124C62.6289 33.1669 62.6942 33.0392 62.7908 32.8291L63.1741 31.973L63.4211 31.4236C63.4977 31.2646 63.5418 31.1695 63.5531 31.1383C63.573 31.0928 63.59 31.0559 63.6042 31.0275C63.6184 31.002 63.6269 30.9807 63.6298 30.9637L63.6724 30.8614L64.2814 29.3836H64.4049C64.6462 30.0196 65.0778 31.0857 65.6996 32.582C65.8274 32.8915 65.9182 33.0889 65.9722 33.174C66.0119 33.2393 66.0943 33.272 66.2192 33.272H66.3086L66.3044 33.502H64.9415L64.95 33.272H65.1246C65.3007 33.272 65.3887 33.2479 65.3887 33.1996C65.3887 33.1797 65.3688 33.1187 65.3291 33.0165L64.8861 31.9304H63.5063L63.0335 32.9781C62.9938 33.069 62.9739 33.1329 62.9739 33.1698C62.9739 33.2152 62.9881 33.2436 63.0165 33.2549C63.042 33.2663 63.1102 33.272 63.2209 33.272H63.4637V33.502H62.3052ZM64.2218 30.2567L63.617 31.6664H64.7882L64.2218 30.2567ZM69.852 29.7669H69.6008V29.5284H71.0914V29.7669H70.904C70.7876 29.7669 70.7152 29.7797 70.6868 29.8052C70.6555 29.8365 70.6399 29.9145 70.6399 30.0395V31.4108L72.3818 29.9969C72.4812 29.9145 72.5309 29.8563 72.5309 29.8223C72.5309 29.7854 72.44 29.7669 72.2583 29.7669H72.0241L72.0113 29.5284H73.4423V29.7669H73.289C73.1669 29.7669 73.0746 29.7839 73.0121 29.818C72.9639 29.8464 72.8148 29.9586 72.565 30.1545L71.2191 31.232L73.0207 33.1101C73.1229 33.218 73.2081 33.272 73.2762 33.272H73.6212L73.6084 33.502H72.6714L70.8571 31.5131L70.6399 31.6919V32.9952C70.6399 33.1314 70.6641 33.2124 70.7123 33.2379C70.7606 33.2606 70.8926 33.272 71.1084 33.272H71.2404V33.502H69.7157L69.7072 33.272H69.8691C70.0139 33.272 70.0976 33.2606 70.1203 33.2379C70.1459 33.2124 70.1587 33.1357 70.1587 33.0079V29.9798C70.1587 29.8748 70.1431 29.8138 70.1118 29.7967C70.0834 29.7768 69.9968 29.7669 69.852 29.7669ZM77.1646 29.7669H76.9133L76.9218 29.5284H78.4167V29.7669H78.3187C78.1626 29.7669 78.0604 29.7797 78.0121 29.8052C77.9723 29.8279 77.9525 29.906 77.9525 30.0395V32.9952C77.9525 33.1258 77.9681 33.2038 77.9993 33.2294C78.0306 33.2578 78.1228 33.272 78.2762 33.272H78.5061L78.5146 33.502H76.9857L76.9814 33.272H77.1348C77.2938 33.272 77.3903 33.2578 77.4244 33.2294C77.4556 33.201 77.4712 33.1272 77.4712 33.0079V29.9798C77.4712 29.8748 77.457 29.8138 77.4286 29.7967C77.3974 29.7768 77.3094 29.7669 77.1646 29.7669ZM81.8153 29.7669L81.8068 29.5284H82.7352L85.1756 32.68V29.9798C85.1756 29.8862 85.1543 29.8265 85.1117 29.801C85.0691 29.7783 84.9825 29.7669 84.8519 29.7669H84.6432L84.6517 29.5284H85.9209V29.7669H85.7846C85.654 29.7669 85.5674 29.7825 85.5248 29.8138C85.4822 29.845 85.4609 29.916 85.4609 30.0267V33.4636V33.5275C85.4609 33.5417 85.4581 33.5559 85.4524 33.5701C85.4496 33.5815 85.4439 33.5914 85.4354 33.5999C85.4297 33.6028 85.4198 33.6042 85.4056 33.6042H85.3246H85.2948H85.2863L85.2735 33.5999C85.265 33.5999 85.2593 33.5985 85.2565 33.5957C85.2508 33.59 85.248 33.5857 85.248 33.5829C85.248 33.5772 85.2466 33.5729 85.2437 33.5701C85.2352 33.5616 85.2281 33.5517 85.2224 33.5403C85.2168 33.5346 85.2111 33.5275 85.2054 33.519C85.1997 33.5076 85.1955 33.5005 85.1926 33.4977L82.5904 30.1587L82.6202 32.9952C82.6202 33.1229 82.6444 33.201 82.6926 33.2294C82.7352 33.2578 82.8573 33.272 83.0589 33.272H83.1611V33.502H81.909V33.272H82.0921C82.1972 33.272 82.2653 33.2564 82.2966 33.2251C82.325 33.1967 82.3406 33.1243 82.3434 33.0079V29.835L82.2795 29.7669H81.8153ZM89.3834 31.726C89.3834 31.3512 89.47 30.9935 89.6432 30.6528C89.8192 30.312 90.0818 30.0281 90.4311 29.801C90.7803 29.5738 91.1849 29.4603 91.6449 29.4603C92.0054 29.4603 92.4115 29.5525 92.8629 29.7371V29.4347H93.1014L93.144 30.7379L92.9098 30.7422L92.8672 30.1247C92.8445 30.1048 92.7948 30.0707 92.7181 30.0224C92.6471 29.9742 92.5037 29.916 92.288 29.8478C92.0835 29.7825 91.8535 29.7499 91.598 29.7499C91.3198 29.7499 91.0713 29.7967 90.8527 29.8904C90.6341 29.9869 90.4595 30.1147 90.3289 30.2737C90.1954 30.4327 90.0946 30.6102 90.0265 30.8061C89.9527 31.0048 89.9157 31.2164 89.9157 31.4407C89.9157 31.9404 90.0747 32.3833 90.3927 32.7694C90.7136 33.1556 91.1366 33.3486 91.6619 33.3486C91.8606 33.3486 92.0495 33.3203 92.2283 33.2635C92.41 33.2095 92.5321 33.157 92.5946 33.1059L92.6926 33.0207V31.956H91.9856L91.9813 31.7217H93.6253L93.6338 31.956H93.1781V33.174L92.8416 33.3188C92.6457 33.4097 92.5151 33.4679 92.4498 33.4934C92.3788 33.519 92.251 33.5502 92.0665 33.5871C91.8961 33.6241 91.7244 33.6425 91.5512 33.6425C91.1821 33.6425 90.8598 33.59 90.5844 33.4849C90.3033 33.3799 90.0747 33.2365 89.8987 33.0548C89.7312 32.8844 89.602 32.6828 89.5112 32.45C89.426 32.2257 89.3834 31.9844 89.3834 31.726ZM101.121 30.4952L100.912 30.4867C100.946 30.1573 100.975 29.8379 100.997 29.5284H104.439C104.416 29.8265 104.4 30.0324 104.392 30.1459C104.38 30.3532 104.372 30.4654 104.366 30.4824L104.153 30.4739C104.176 30.2013 104.187 30.0395 104.187 29.9884C104.187 29.9089 104.167 29.8563 104.128 29.8308C104.079 29.8024 103.997 29.7882 103.881 29.7882H103.199C103.054 29.7882 102.965 29.8024 102.931 29.8308C102.903 29.8535 102.888 29.9344 102.888 30.0735V32.9952C102.888 33.1201 102.908 33.1967 102.948 33.2251C102.993 33.2564 103.089 33.272 103.233 33.272H103.472L103.476 33.502L101.905 33.4977V33.272H101.998C102.188 33.272 102.305 33.2606 102.347 33.2379C102.387 33.2124 102.407 33.14 102.407 33.0207V30.1247C102.407 29.9657 102.393 29.8691 102.365 29.835C102.336 29.8038 102.262 29.7882 102.143 29.7882H101.517C101.463 29.7882 101.426 29.791 101.406 29.7967C101.389 29.7996 101.365 29.801 101.334 29.801C101.325 29.801 101.304 29.8109 101.27 29.8308C101.247 29.845 101.232 29.8549 101.223 29.8606C101.217 29.8663 101.209 29.8847 101.198 29.916C101.189 29.933 101.181 29.9543 101.172 29.9798C101.164 29.9997 101.156 30.031 101.151 30.0735C101.145 30.1388 101.142 30.1743 101.142 30.18C101.142 30.234 101.139 30.2822 101.134 30.3248C101.134 30.3447 101.132 30.3731 101.129 30.41C101.129 30.4497 101.127 30.4781 101.121 30.4952ZM107.893 29.7669H107.735V29.5284H109.221V29.7669H109.064C108.922 29.7669 108.83 29.7825 108.787 29.8138C108.747 29.8393 108.726 29.9103 108.723 30.0267V31.1596H110.665V29.9798C110.665 29.8748 110.651 29.8138 110.623 29.7967C110.591 29.7768 110.5 29.7669 110.35 29.7669H110.103L110.094 29.5284H111.611V29.7669H111.445C111.308 29.7669 111.224 29.7811 111.193 29.8095C111.162 29.835 111.146 29.9032 111.146 30.0139V33.025C111.146 33.1329 111.166 33.201 111.206 33.2294C111.249 33.2578 111.348 33.272 111.504 33.272H111.704L111.7 33.502H110.214L110.209 33.272H110.384C110.515 33.272 110.594 33.2578 110.623 33.2294C110.651 33.201 110.665 33.1272 110.665 33.0079V31.4449H108.723V33.0079C108.723 33.1272 108.746 33.201 108.791 33.2294C108.834 33.2578 108.954 33.272 109.153 33.272H109.328L109.315 33.502H107.79L107.786 33.272H107.939C108.093 33.272 108.179 33.262 108.199 33.2422C108.228 33.2138 108.242 33.1357 108.242 33.0079V29.9586C108.242 29.8649 108.222 29.8109 108.182 29.7967C108.134 29.7768 108.037 29.7669 107.893 29.7669ZM115.009 29.7669L115.001 29.5284H118.071C118.077 29.8294 118.087 30.1417 118.101 30.4654L117.867 30.4739C117.864 30.2922 117.856 30.1431 117.841 30.0267C117.83 29.9245 117.816 29.8606 117.799 29.835C117.785 29.8095 117.76 29.7939 117.726 29.7882C117.698 29.7854 117.601 29.7839 117.437 29.7839H116.423C116.267 29.7839 116.169 29.7967 116.129 29.8223C116.092 29.8478 116.074 29.9273 116.074 30.0608V30.8913C116.074 31.0077 116.082 31.0758 116.1 31.0957C116.119 31.1184 116.178 31.1298 116.274 31.1298H117.173C117.275 31.1298 117.339 31.1141 117.364 31.0829C117.387 31.0545 117.398 30.9708 117.398 30.8316V30.6059L117.62 30.6144V32.0369H117.398V31.726C117.398 31.5613 117.389 31.4662 117.369 31.4407C117.346 31.4094 117.285 31.3938 117.186 31.3938H116.291C116.195 31.3938 116.135 31.4052 116.112 31.4279C116.087 31.4534 116.074 31.5031 116.074 31.5769V32.9866C116.074 33.0917 116.087 33.1584 116.112 33.1868C116.135 33.2152 116.186 33.2294 116.266 33.2294C117.095 33.2237 117.583 33.2124 117.731 33.1953C117.878 33.1783 117.965 33.1343 117.99 33.0633V33.0548L117.995 33.0505L118.088 32.548L118.293 32.582L118.144 33.502H115.12V33.272H115.278C115.437 33.272 115.527 33.262 115.55 33.2422C115.578 33.2195 115.593 33.1527 115.593 33.042V30.0224C115.593 29.9032 115.571 29.8308 115.529 29.8052C115.481 29.7797 115.363 29.7669 115.175 29.7669H115.009ZM125.886 29.7669H125.784V29.5284H127.109L127.1 29.7669H126.968C126.735 29.7669 126.619 29.8095 126.619 29.8947C126.619 29.9202 126.623 29.9415 126.632 29.9586L127.662 32.7992L128.646 30.2822L128.604 30.163C128.595 30.1488 128.588 30.1303 128.582 30.1076C128.577 30.0849 128.571 30.0664 128.565 30.0523C128.56 30.0352 128.555 30.0224 128.553 30.0139C128.544 29.9969 128.526 29.96 128.497 29.9032C128.474 29.8578 128.446 29.8223 128.412 29.7967C128.389 29.7768 128.354 29.7669 128.306 29.7669H128.016V29.5284H129.434V29.7669H129.119C129.054 29.7669 129.011 29.7726 128.991 29.7839C128.974 29.7953 128.964 29.8208 128.961 29.8606C128.961 29.9003 128.997 30.0281 129.068 30.2439L129.941 32.7822L131.001 29.9969C131.018 29.9486 131.027 29.9145 131.027 29.8947C131.027 29.8407 131.003 29.8052 130.955 29.7882C130.909 29.774 130.835 29.7669 130.733 29.7669H130.576V29.5284H131.598L131.606 29.7669H131.534C131.434 29.7669 131.371 29.7854 131.342 29.8223C131.308 29.8762 131.256 29.994 131.185 30.1758L129.869 33.5999H129.766L128.753 30.6187L127.594 33.5957H127.501L126.236 30.1417C126.176 29.9827 126.124 29.8791 126.078 29.8308C126.033 29.7854 125.969 29.7641 125.886 29.7669ZM134.903 29.7669L134.898 29.5284H137.969C137.972 29.8294 137.982 30.1417 137.999 30.4654L137.765 30.4739C137.762 30.2922 137.752 30.1431 137.735 30.0267C137.723 29.9245 137.711 29.8606 137.696 29.835C137.679 29.8095 137.655 29.7939 137.624 29.7882C137.596 29.7854 137.498 29.7839 137.33 29.7839H136.317C136.163 29.7839 136.065 29.7967 136.023 29.8223C135.989 29.8478 135.972 29.9273 135.972 30.0608V30.8913C135.972 31.0077 135.98 31.0758 135.997 31.0957C136.014 31.1184 136.072 31.1298 136.172 31.1298H137.07C137.173 31.1298 137.235 31.1141 137.258 31.0829C137.28 31.0545 137.293 30.9708 137.296 30.8316V30.6059L137.513 30.6144V32.0369H137.296V31.726C137.296 31.5613 137.286 31.4662 137.266 31.4407C137.241 31.4094 137.18 31.3938 137.083 31.3938H136.189C136.092 31.3938 136.033 31.4052 136.01 31.4279C135.984 31.4534 135.972 31.5031 135.972 31.5769V32.9866C135.972 33.0917 135.984 33.1584 136.01 33.1868C136.033 33.2152 136.082 33.2294 136.159 33.2294C136.988 33.2237 137.478 33.2124 137.628 33.1953C137.776 33.1783 137.861 33.1343 137.884 33.0633L137.888 33.0548L137.892 33.0505L137.986 32.548L138.19 32.582L138.041 33.502H135.018V33.272H135.175C135.334 33.272 135.425 33.262 135.448 33.2422C135.476 33.2195 135.49 33.1527 135.49 33.042V30.0224C135.49 29.9032 135.469 29.8308 135.426 29.8052C135.375 29.7797 135.257 29.7669 135.073 29.7669H134.903ZM141.713 29.7669H141.542L141.555 29.5284H142.875C143.369 29.5284 143.727 29.6235 143.948 29.8138C144.167 30.004 144.276 30.234 144.276 30.5037C144.276 30.7053 144.2 30.8799 144.046 31.0275C143.887 31.1809 143.71 31.2873 143.514 31.347C143.821 31.4094 144.049 31.55 144.2 31.7686C144.347 31.9787 144.42 32.2158 144.417 32.4798C144.417 32.7638 144.328 32.9881 144.149 33.1527C143.978 33.3061 143.758 33.404 143.489 33.4466C143.227 33.4835 142.877 33.502 142.437 33.502H141.593V33.272H141.772C141.874 33.272 141.941 33.262 141.972 33.2422C142.006 33.2223 142.023 33.174 142.023 33.0974V29.9798C142.023 29.8862 142.002 29.8265 141.96 29.801C141.92 29.7783 141.837 29.7669 141.713 29.7669ZM142.492 31.4492L142.505 33.0505C142.505 33.13 142.529 33.1811 142.577 33.2038C142.625 33.2294 142.73 33.2422 142.892 33.2422C143.534 33.2422 143.855 32.9739 143.855 32.4372C143.855 32.2413 143.808 32.0738 143.714 31.9347C143.626 31.7956 143.507 31.6948 143.357 31.6323C143.192 31.5556 143.047 31.5074 142.922 31.4875C142.786 31.4619 142.642 31.4492 142.492 31.4492ZM142.505 29.9245V31.2788H143.088C143.276 31.2788 143.429 31.2036 143.548 31.0531C143.662 30.9083 143.72 30.7493 143.723 30.5761C143.723 30.3802 143.639 30.1999 143.471 30.0352C143.31 29.8705 143.047 29.7882 142.684 29.7882C142.564 29.7882 142.505 29.8336 142.505 29.9245ZM151.925 33.502L151.921 33.272H151.994C152.104 33.272 152.178 33.2521 152.215 33.2124C152.249 33.1669 152.314 33.0392 152.411 32.8291L152.799 31.973L153.041 31.4236C153.118 31.2646 153.162 31.1695 153.173 31.1383C153.193 31.0928 153.21 31.0559 153.224 31.0275C153.239 31.002 153.247 30.9807 153.25 30.9637L153.293 30.8614L153.902 29.3836H154.025C154.266 30.0196 154.698 31.0857 155.32 32.582C155.448 32.8915 155.538 33.0889 155.592 33.174C155.632 33.2393 155.714 33.272 155.839 33.272H155.929L155.925 33.502H154.562L154.57 33.272H154.749C154.922 33.272 155.009 33.2479 155.009 33.1996C155.009 33.1797 154.989 33.1187 154.949 33.0165L154.511 31.9304H153.126L152.654 32.9781C152.614 33.069 152.594 33.1329 152.594 33.1698C152.594 33.2152 152.608 33.2436 152.637 33.2549C152.665 33.2663 152.733 33.272 152.841 33.272H153.084V33.502H151.925ZM153.842 30.2567L153.237 31.6664H154.408L153.842 30.2567ZM159.387 29.7669H159.285V29.5284H160.605L160.601 29.7669H160.469C160.233 29.7669 160.115 29.8095 160.115 29.8947C160.115 29.9202 160.121 29.9415 160.132 29.9586L161.163 32.7992L162.147 30.2822L162.1 30.163C162.094 30.1488 162.089 30.1303 162.083 30.1076C162.074 30.0849 162.067 30.0664 162.062 30.0523C162.056 30.0352 162.052 30.0224 162.049 30.0139C162.04 29.9969 162.023 29.96 161.998 29.9032C161.975 29.8578 161.947 29.8223 161.913 29.7967C161.89 29.7768 161.854 29.7669 161.806 29.7669H161.512V29.5284H162.93V29.7669H162.615C162.55 29.7669 162.509 29.7726 162.492 29.7839C162.472 29.7953 162.462 29.8208 162.462 29.8606C162.459 29.9003 162.495 30.0281 162.568 30.2439L163.437 32.7822L164.502 29.9969C164.516 29.9486 164.523 29.9145 164.523 29.8947C164.523 29.8407 164.499 29.8052 164.451 29.7882C164.405 29.774 164.333 29.7669 164.234 29.7669H164.076V29.5284H165.098L165.102 29.7669H165.03C164.931 29.7669 164.868 29.7854 164.843 29.8223C164.806 29.8762 164.753 29.994 164.685 30.1758L163.369 33.5999H163.267L162.253 30.6187L161.095 33.5957H161.001L159.736 30.1417C159.674 29.9827 159.62 29.8791 159.574 29.8308C159.529 29.7854 159.467 29.7641 159.387 29.7669ZM168.403 29.7669L168.395 29.5284H171.465C171.471 29.8294 171.481 30.1417 171.495 30.4654L171.265 30.4739C171.259 30.2922 171.25 30.1431 171.235 30.0267C171.224 29.9245 171.21 29.8606 171.193 29.835C171.179 29.8095 171.154 29.7939 171.12 29.7882C171.095 29.7854 170.998 29.7839 170.831 29.7839H169.817C169.661 29.7839 169.563 29.7967 169.523 29.8223C169.486 29.8478 169.468 29.9273 169.468 30.0608V30.8913C169.468 31.0077 169.476 31.0758 169.493 31.0957C169.513 31.1184 169.572 31.1298 169.668 31.1298H170.567C170.669 31.1298 170.733 31.1141 170.758 31.0829C170.781 31.0545 170.794 30.9708 170.797 30.8316V30.6059L171.014 30.6144V32.0369H170.797V31.726C170.797 31.5613 170.785 31.4662 170.763 31.4407C170.74 31.4094 170.679 31.3938 170.579 31.3938H169.685C169.591 31.3938 169.532 31.4052 169.506 31.4279C169.481 31.4534 169.468 31.5031 169.468 31.5769V32.9866C169.468 33.0917 169.481 33.1584 169.506 33.1868C169.532 33.2152 169.583 33.2294 169.66 33.2294C170.489 33.2237 170.977 33.2124 171.125 33.1953C171.272 33.1783 171.359 33.1343 171.384 33.0633V33.0548L171.389 33.0505L171.487 32.548L171.687 32.582L171.542 33.502H168.514V33.272H168.671C168.83 33.272 168.921 33.262 168.944 33.2422C168.972 33.2195 168.987 33.1527 168.987 33.042V30.0224C168.987 29.9032 168.965 29.8308 168.923 29.8052C168.874 29.7797 168.757 29.7669 168.569 29.7669H168.403ZM175.03 32.4926L175.239 32.4671L175.32 32.8376C175.351 32.9739 175.376 33.0534 175.396 33.0761C175.413 33.0988 175.48 33.1314 175.596 33.174C175.838 33.262 176.085 33.3061 176.337 33.3061C176.562 33.3061 176.751 33.2408 176.904 33.1101C177.054 32.9824 177.13 32.8078 177.13 32.5863C177.13 32.4131 177.064 32.264 176.934 32.1391C176.797 32.0113 176.609 31.8822 176.367 31.7516L176.125 31.6153C175.912 31.4932 175.772 31.4052 175.707 31.3512C175.605 31.2717 175.508 31.1624 175.418 31.0233C175.33 30.8842 175.286 30.7237 175.286 30.542C175.286 30.2382 175.405 29.9855 175.643 29.7839C175.882 29.5824 176.159 29.4816 176.474 29.4816C176.553 29.4816 176.643 29.4915 176.742 29.5114C176.799 29.5227 176.874 29.5412 176.968 29.5667L177.07 29.6008C177.098 29.6008 177.118 29.588 177.13 29.5625C177.144 29.5312 177.151 29.5057 177.151 29.4858L177.159 29.4432L177.364 29.4305L177.453 30.5207L177.236 30.5292L177.185 29.9969C176.975 29.8379 176.704 29.7584 176.372 29.7584C176.19 29.7584 176.027 29.8194 175.882 29.9415C175.748 30.0608 175.682 30.2127 175.682 30.3972C175.682 30.5676 175.746 30.7166 175.873 30.8444C175.995 30.9665 176.18 31.0957 176.427 31.232L176.755 31.4108C177.025 31.5613 177.235 31.7161 177.385 31.8751C177.538 32.0341 177.615 32.2229 177.615 32.4415C177.615 32.7453 177.493 33.0065 177.249 33.2251C177.002 33.4466 176.673 33.5573 176.261 33.5573C176.102 33.5573 175.95 33.5389 175.805 33.502C175.663 33.4679 175.585 33.4509 175.571 33.4509C175.497 33.4509 175.46 33.492 175.46 33.5744L175.469 33.651L175.264 33.6681C175.247 33.5573 175.169 33.1655 175.03 32.4926ZM181.261 31.5514C181.261 31.2078 181.318 30.9026 181.431 30.6357C181.55 30.3632 181.708 30.1417 181.904 29.9713C182.1 29.7981 182.32 29.6661 182.564 29.5753C182.803 29.4872 183.057 29.4432 183.326 29.4432C183.684 29.4432 184.012 29.517 184.31 29.6647C184.617 29.8152 184.872 30.0523 185.077 30.3759C185.273 30.6882 185.372 31.0687 185.375 31.5173C185.375 31.787 185.331 32.0412 185.243 32.2797C185.155 32.5182 185.026 32.7396 184.855 32.944C184.682 33.1456 184.463 33.3046 184.199 33.421C183.924 33.5375 183.617 33.5971 183.28 33.5999C182.959 33.5999 182.665 33.5417 182.398 33.4253C182.134 33.3117 181.922 33.157 181.763 32.9611C181.599 32.7652 181.475 32.5466 181.393 32.3052C181.305 32.0554 181.261 31.8041 181.261 31.5514ZM181.797 31.3597C181.797 31.6834 181.858 31.9986 181.981 32.3052C182.094 32.6005 182.283 32.8461 182.547 33.042C182.805 33.2408 183.103 33.3415 183.441 33.3444C183.83 33.3444 184.158 33.1982 184.425 32.9057C184.695 32.6104 184.83 32.1973 184.83 31.6664C184.83 31.0673 184.665 30.5875 184.336 30.2269C184.009 29.8691 183.632 29.6888 183.203 29.686C183.055 29.686 182.905 29.7144 182.751 29.7712C182.595 29.8279 182.446 29.9131 182.304 30.0267C182.148 30.1488 182.025 30.3234 181.934 30.5505C181.843 30.7748 181.797 31.0446 181.797 31.3597ZM190.179 33.502H188.893V33.272H188.948C189.116 33.272 189.216 33.2578 189.25 33.2294C189.285 33.2038 189.303 33.1243 189.306 32.9909L189.361 30.0821C189.361 30.0735 189.363 30.0593 189.365 30.0395C189.368 30.0196 189.37 30.004 189.37 29.9926V29.9245C189.37 29.8535 189.358 29.8109 189.336 29.7967C189.31 29.7768 189.265 29.7669 189.199 29.7669H188.897L188.893 29.5284H189.791L191.15 32.7098L192.487 29.5284H193.441V29.7669H193.237C193.109 29.7669 193.028 29.7768 192.994 29.7967C192.949 29.8194 192.926 29.872 192.926 29.9543V32.9952C192.926 33.1258 192.942 33.2038 192.973 33.2294C193.007 33.2578 193.113 33.272 193.292 33.272H193.411L193.416 33.502H191.968L191.959 33.272H192.078C192.254 33.272 192.358 33.2578 192.389 33.2294C192.426 33.1982 192.445 33.1243 192.445 33.0079V30.2737L191.525 32.4372L191.163 33.3359C191.123 33.4352 191.097 33.4949 191.086 33.5147C191.072 33.5346 191.056 33.5446 191.039 33.5446C191.011 33.5446 190.933 33.404 190.805 33.1229L189.608 30.3504L189.583 33.0676C189.583 33.1669 189.611 33.2251 189.668 33.2422C189.736 33.262 189.906 33.272 190.179 33.272V33.502ZM196.712 29.7669L196.708 29.5284H199.779C199.781 29.8294 199.791 30.1417 199.808 30.4654L199.574 30.4739C199.568 30.2922 199.558 30.1431 199.544 30.0267C199.533 29.9245 199.519 29.8606 199.502 29.835C199.487 29.8095 199.463 29.7939 199.429 29.7882C199.404 29.7854 199.307 29.7839 199.14 29.7839H198.126C197.97 29.7839 197.872 29.7967 197.832 29.8223C197.798 29.8478 197.781 29.9273 197.781 30.0608V30.8913C197.781 31.0077 197.788 31.0758 197.802 31.0957C197.822 31.1184 197.88 31.1298 197.977 31.1298H198.876C198.981 31.1298 199.045 31.1141 199.067 31.0829C199.09 31.0545 199.103 30.9708 199.106 30.8316V30.6059L199.323 30.6144V32.0369H199.106V31.726C199.106 31.5613 199.094 31.4662 199.072 31.4407C199.049 31.4094 198.988 31.3938 198.888 31.3938H197.994C197.9 31.3938 197.841 31.4052 197.815 31.4279C197.792 31.4534 197.781 31.5031 197.781 31.5769V32.9866C197.781 33.0917 197.792 33.1584 197.815 33.1868C197.841 33.2152 197.892 33.2294 197.968 33.2294C198.798 33.2237 199.287 33.2124 199.438 33.1953C199.585 33.1783 199.671 33.1343 199.693 33.0633L199.698 33.0548V33.0505L199.796 32.548L200 32.582L199.851 33.502H196.827V33.272H196.98C197.142 33.272 197.235 33.262 197.257 33.2422C197.283 33.2195 197.296 33.1527 197.296 33.042V30.0224C197.296 29.9032 197.274 29.8308 197.232 29.8052C197.183 29.7797 197.067 29.7669 196.882 29.7669H196.712Z" fill="white"/>
<defs>
<linearGradient id="paint0_linear" x1="-2.72453" y1="4.02369" x2="40.8135" y2="24.3258" gradientUnits="userSpaceOnUse">
<stop stop-color="#568203"/>
<stop offset="0.317708" stop-color="#568203"/>
<stop offset="0.854167" stop-color="#568203"/>
<stop offset="1" stop-color="#568203"/>
</linearGradient>
<linearGradient id="paint1_linear" x1="5.82311" y1="4.29656" x2="33.5886" y2="25.0237" gradientUnits="userSpaceOnUse">
<stop stop-color="#568203"/>
<stop offset="0.400253" stop-color="#568203"/>
<stop offset="1" stop-color="#568203"/>
</linearGradient>
<linearGradient id="paint2_linear" x1="17.293" y1="9.00509" x2="28.5574" y2="17.4141" gradientUnits="userSpaceOnUse">
<stop stop-color="#568203"/>
<stop offset="1" stop-color="#568203"/>
</linearGradient>
<linearGradient id="paint3_linear" x1="5.464" y1="28.1234" x2="10.1399" y2="31.614" gradientUnits="userSpaceOnUse">
<stop stop-color="#177775"/>
<stop offset="1" stop-color="#568203"/>
</linearGradient>
<linearGradient id="paint4_linear" x1="9.27716" y1="24.5085" x2="12.4908" y2="26.9075" gradientUnits="userSpaceOnUse">
<stop stop-color="#568203"/>
<stop offset="1" stop-color="#568203"/>
</linearGradient>
<linearGradient id="paint5_linear" x1="3.24432" y1="34.1335" x2="5.02556" y2="35.4632" gradientUnits="userSpaceOnUse">
<stop stop-color="#177775"/>
<stop offset="1" stop-color="#568203"/>
</linearGradient>
<linearGradient id="paint6_linear" x1="1.40569" y1="38.4694" x2="2.05771" y2="38.9562" gradientUnits="userSpaceOnUse">
<stop stop-color="#177775"/>
<stop offset="1" stop-color="#568203"/>
</linearGradient>
</defs>
</svg>
